<svg 
 xmlns="http://www.w3.org/2000/svg"
 xmlns:xlink="http://www.w3.org/1999/xlink"
 width="99px" height="95px">
<path fill-rule="evenodd"  fill="rgb(51, 111, 137)"
 d="M98.261,2.929 C93.873,7.444 89.479,11.955 85.108,16.487 C84.850,16.754 84.639,17.198 84.638,17.560 C84.613,28.888 84.618,40.216 84.618,51.545 C84.618,51.691 84.618,51.838 84.618,52.135 C84.957,52.135 85.220,52.135 85.483,52.135 C89.324,52.135 93.165,52.134 97.006,52.136 C98.365,52.137 98.847,52.588 98.849,53.945 C98.859,60.531 98.858,67.117 98.850,73.702 C98.848,75.048 98.357,75.524 97.015,75.526 C93.199,75.532 89.382,75.528 85.566,75.528 C85.296,75.528 85.027,75.528 84.618,75.528 C84.618,75.849 84.618,76.129 84.618,76.410 C84.618,80.243 84.528,84.079 84.642,87.909 C84.760,91.867 81.764,95.015 77.571,95.001 C61.049,94.948 44.527,94.981 28.005,94.978 C24.495,94.977 21.826,92.949 21.158,89.764 C21.038,89.193 21.018,88.593 21.015,88.006 C21.000,85.451 21.009,82.895 21.007,80.339 C21.007,80.103 20.986,79.867 20.967,79.463 C20.209,80.136 19.555,80.711 18.907,81.292 C17.497,82.557 16.094,83.828 14.682,85.091 C13.589,86.069 12.525,85.848 11.928,84.502 C9.286,78.550 6.650,72.596 4.021,66.639 C3.361,65.144 3.882,64.264 5.512,64.105 C10.436,63.622 15.362,63.147 20.287,62.679 C20.712,62.639 21.025,62.619 21.020,62.034 C20.994,58.815 21.007,55.596 21.004,52.377 C21.004,52.282 20.977,52.186 20.946,51.983 C13.659,52.175 7.690,49.542 3.441,43.503 C0.830,39.792 -0.280,35.622 0.059,31.098 C0.459,25.762 2.713,21.322 6.778,17.852 C10.837,14.387 15.599,12.911 21.008,13.258 C21.008,12.913 21.008,12.649 21.008,12.386 C21.009,10.493 20.990,8.601 21.014,6.710 C21.061,2.918 23.662,0.229 27.462,0.016 C27.708,0.003 27.954,0.003 28.200,0.003 C44.673,0.002 61.146,0.006 77.619,-0.001 C79.762,-0.002 81.652,0.566 83.107,2.227 C84.096,3.354 84.704,4.655 84.742,6.161 C84.787,7.954 84.765,9.748 84.771,11.542 C84.772,11.781 84.771,12.020 84.771,12.421 C85.038,12.182 85.199,12.056 85.340,11.910 C88.808,8.318 92.274,4.724 95.740,1.130 C95.860,1.007 95.978,0.882 96.099,0.759 C96.976,-0.130 97.836,-0.229 98.533,0.479 C99.238,1.195 99.147,2.018 98.261,2.929 ZM84.654,72.387 C88.389,72.387 92.040,72.387 95.670,72.387 C95.670,66.635 95.670,60.951 95.670,55.269 C91.958,55.269 88.309,55.269 84.654,55.269 C84.654,61.008 84.654,66.675 84.654,72.387 ZM21.008,65.676 C16.456,66.095 12.049,66.500 7.556,66.913 C9.745,71.851 11.871,76.646 14.012,81.474 C14.151,81.398 14.246,81.368 14.313,81.307 C16.444,79.378 18.581,77.455 20.686,75.498 C20.895,75.304 20.991,74.897 20.995,74.588 C21.020,72.232 21.008,69.876 21.008,67.520 C21.008,66.937 21.008,66.354 21.008,65.676 ZM21.008,47.676 C21.008,37.651 21.008,27.625 21.008,17.600 C21.008,16.218 21.008,16.218 19.591,16.200 C9.836,16.078 2.064,24.683 3.180,34.371 C4.062,42.040 10.177,48.046 17.888,48.776 C18.900,48.871 19.929,48.789 21.008,48.789 C21.008,48.309 21.008,47.993 21.008,47.676 ZM81.535,7.533 C81.534,6.765 81.443,5.936 81.147,5.240 C80.485,3.686 79.120,3.249 77.518,3.250 C61.045,3.260 44.572,3.256 28.098,3.257 C27.827,3.257 27.555,3.255 27.286,3.281 C25.751,3.425 24.538,4.439 24.201,5.930 C24.084,6.450 24.082,7.003 24.082,7.541 C24.076,20.885 24.077,34.228 24.077,47.572 C24.077,60.989 24.075,74.407 24.078,87.824 C24.079,90.520 25.429,91.876 28.105,91.877 C44.603,91.878 61.101,91.879 77.599,91.876 C80.152,91.875 81.531,90.506 81.548,87.963 C81.560,86.194 81.550,84.425 81.550,82.655 C81.550,57.615 81.554,32.574 81.535,7.533 ZM75.447,84.483 C60.401,84.484 45.356,84.484 30.310,84.483 C28.654,84.483 28.273,84.097 28.273,82.435 C28.272,70.811 28.273,59.188 28.273,47.564 C28.273,35.916 28.272,24.268 28.273,12.620 C28.273,11.077 28.692,10.653 30.246,10.652 C45.291,10.650 60.337,10.651 75.382,10.652 C76.961,10.652 77.510,11.207 77.510,12.784 C77.511,36.007 77.511,59.229 77.510,82.452 C77.510,84.081 77.100,84.483 75.447,84.483 ZM74.429,14.710 C74.429,14.468 74.429,14.228 74.429,13.937 C60.007,13.937 45.715,13.937 31.351,13.937 C31.351,14.917 31.306,15.850 31.373,16.775 C31.399,17.137 31.599,17.551 31.850,17.821 C32.782,18.830 33.878,19.705 34.718,20.781 C41.263,29.168 40.049,40.594 31.906,47.479 C31.479,47.839 31.338,48.195 31.341,48.729 C31.359,52.758 31.350,56.788 31.352,60.818 C31.353,61.079 31.375,61.341 31.387,61.611 C31.704,61.611 31.948,61.631 32.188,61.607 C33.755,61.449 35.321,61.282 36.888,61.118 C36.961,61.110 37.035,61.100 37.108,61.094 C38.003,61.025 38.663,61.375 38.958,62.122 C39.247,62.853 38.898,63.420 38.381,63.884 C36.222,65.824 34.056,67.757 31.875,69.671 C31.488,70.010 31.336,70.360 31.340,70.873 C31.361,74.117 31.350,77.360 31.352,80.604 C31.353,80.843 31.374,81.082 31.388,81.351 C45.699,81.351 59.962,81.351 74.211,81.351 C74.211,79.446 74.211,77.595 74.211,75.685 C73.856,75.685 73.564,75.685 73.273,75.685 C68.447,75.686 63.621,75.670 58.795,75.701 C57.901,75.707 57.258,75.420 56.688,74.741 C54.046,71.597 51.376,68.477 48.714,65.351 C47.757,64.228 47.760,63.583 48.730,62.446 C51.393,59.320 54.076,56.210 56.700,53.053 C57.268,52.370 57.877,52.121 58.729,52.125 C63.629,52.147 68.528,52.135 73.428,52.135 C73.738,52.135 74.047,52.135 74.359,52.135 C74.359,44.067 74.359,36.111 74.359,28.154 C73.963,28.344 73.738,28.634 73.484,28.897 C71.488,30.970 69.488,33.039 67.485,35.105 C65.447,37.206 63.412,39.309 61.359,41.396 C60.676,42.090 59.820,42.106 59.196,41.505 C58.549,40.879 58.519,40.075 59.148,39.334 C59.497,38.923 59.886,38.544 60.262,38.154 C64.819,33.426 69.383,28.705 73.919,23.956 C74.202,23.660 74.400,23.156 74.407,22.744 C74.450,20.067 74.429,17.388 74.429,14.710 ZM31.400,21.653 C31.400,28.927 31.400,36.153 31.400,43.502 C37.362,37.583 37.108,27.214 31.400,21.653 ZM31.390,64.619 C31.390,65.058 31.390,65.412 31.390,65.949 C31.967,65.416 32.403,65.014 32.838,64.613 C32.815,64.567 32.793,64.522 32.771,64.476 C32.310,64.524 31.848,64.571 31.390,64.619 ZM74.239,72.404 C74.239,66.669 74.239,60.984 74.239,55.230 C74.001,55.216 73.856,55.199 73.712,55.199 C68.987,55.198 64.263,55.186 59.539,55.222 C59.196,55.225 58.765,55.497 58.527,55.774 C56.367,58.291 54.240,60.837 52.106,63.376 C51.984,63.521 51.887,63.686 51.778,63.842 C51.856,63.958 51.903,64.045 51.965,64.119 C54.194,66.770 56.416,69.429 58.673,72.058 C58.871,72.289 59.296,72.435 59.617,72.437 C64.267,72.461 68.917,72.454 73.568,72.451 C73.781,72.451 73.994,72.423 74.239,72.404 ZM61.860,68.133 C59.488,68.113 57.564,66.144 57.601,63.774 C57.640,61.320 59.481,59.520 61.940,59.533 C64.344,59.545 66.255,61.452 66.253,63.834 C66.251,66.241 64.296,68.154 61.860,68.133 ZM61.948,62.610 C61.216,62.588 60.723,63.047 60.702,63.769 C60.682,64.499 61.213,65.054 61.928,65.050 C62.624,65.046 63.145,64.530 63.148,63.840 C63.152,63.143 62.653,62.631 61.948,62.610 ZM63.000,8.313 C62.683,8.339 62.362,8.317 62.043,8.317 C62.043,8.318 62.043,8.320 62.043,8.322 C61.773,8.322 61.502,8.337 61.233,8.319 C60.325,8.260 59.773,7.685 59.766,6.809 C59.759,5.924 60.292,5.324 61.200,5.266 C61.811,5.227 62.430,5.225 63.040,5.275 C63.895,5.346 64.398,5.952 64.392,6.815 C64.386,7.673 63.867,8.242 63.000,8.313 ZM56.442,8.321 C54.180,8.341 51.918,8.327 49.655,8.327 C47.418,8.328 45.180,8.337 42.942,8.324 C41.951,8.318 41.322,7.782 41.249,6.942 C41.168,6.025 41.698,5.373 42.614,5.266 C42.760,5.249 42.908,5.248 43.056,5.248 C47.457,5.247 51.859,5.245 56.261,5.250 C57.262,5.251 57.795,5.589 57.990,6.304 C58.300,7.441 57.656,8.310 56.442,8.321 ZM45.829,86.658 C45.902,86.654 45.976,86.655 46.050,86.655 C50.505,86.654 54.960,86.650 59.415,86.657 C60.469,86.658 60.998,87.064 61.118,87.908 C61.275,89.009 60.649,89.720 59.461,89.729 C57.221,89.745 54.982,89.733 52.742,89.733 C50.502,89.733 48.262,89.742 46.022,89.730 C45.010,89.724 44.457,89.274 44.350,88.430 C44.220,87.397 44.784,86.721 45.829,86.658 Z"/>
</svg>