<svg xmlns="http://www.w3.org/2000/svg" viewBox="0 0 222.32 220.75" fill="#336f89"><title>Asset 5</title><g id="Layer_2" data-name="Layer 2"><g id="Layer_1-2" data-name="Layer 1"><path d="M0,146.21a27.1,27.1,0,0,1,1.94-2.45Q17.56,128,33.21,112.36c.28-.29.59-.57.95-.91.78,2.2,1.55,4.31,2.24,6.45.08.24-.29.71-.55,1q-8.3,8.37-16.63,16.71Q12.55,142.29,5.86,149c-1.6,1.6-3.55,1.73-4.89.3a9.54,9.54,0,0,1-1-1.49Z"/><path d="M148.15,134.39c3.37,3.35,6.69,6.66,10,9.93a1.42,1.42,0,0,0,1.08.31,16.14,16.14,0,0,1,14.17,5q21.93,22,44,44a15.66,15.66,0,1,1-21.79,22.49c-7.39-7.33-14.72-14.7-22.07-22.05Q162.28,182.78,151,171.51a15.58,15.58,0,0,1-4.72-13.81,1.51,1.51,0,0,0-.28-1.11c-3.27-3.31-6.58-6.59-9.87-9.87,0-.05-.14-.05-.25-.09-15.28,10.84-32.13,14.46-50.42,10.14a58.42,58.42,0,0,1-35-23.81,60.41,60.41,0,1,1,97.71,1.43Zm-5.24-36.14a43.13,43.13,0,1,0-43.37,43A43.15,43.15,0,0,0,142.91,98.25Z"/><path d="M149.53,56.43c-1.47-1.81-2.86-3.45-4.16-5.17a1.48,1.48,0,0,1,0-1.27c3-6.77,6-13.52,9-20.27q4.38-9.82,8.78-19.65c.15-.34.29-.68.54-1.27-.6.19-1,.31-1.4.46-8,3-15.92,5.92-23.9,8.81a5.53,5.53,0,0,1-2.85.23,2.94,2.94,0,0,1-2.14-2.88,3.07,3.07,0,0,1,2.05-3.09c2.28-.89,4.59-1.71,6.89-2.57L167.73.36c2.32-.86,3.9-.18,4.8,2.11q6.22,15.68,12.41,31.37a3.32,3.32,0,0,1-.81,4.11,3,3,0,0,1-3.68.2A5.26,5.26,0,0,1,178.88,36c-3-7.49-6-15-8.93-22.52-.17-.42-.35-.83-.6-1.43C162.72,26.93,156.15,41.63,149.53,56.43Z"/><path d="M100.71,81C94.12,97.13,87.61,113.13,81,129.3l-5.73-3c.58-1.43,1.1-2.75,1.64-4.06L96.4,74.37c.84-2.05,2.5-3,4.25-2.29a5.37,5.37,0,0,1,1.79,1.33q10.47,10.95,20.88,21.94c.37.38.71.78,1.16,1.28,2.66-5.94,5.24-11.72,7.91-17.67a37.65,37.65,0,0,1,2.54,9.85,1.84,1.84,0,0,1-.25.85c-2,4.56-4.05,9.11-6.1,13.65-1.16,2.58-3.72,3-5.67,1q-10.38-10.86-20.72-21.77Z"/></g></g></svg>