<svg xmlns="http://www.w3.org/2000/svg" viewBox="0 0 197.12 202.82" fill="#336f89"><title>Asset 7</title><g id="Layer_2" data-name="Layer 2"><g id="Layer_1-2" data-name="Layer 1"><path d="M87.21,0a4.48,4.48,0,0,0,.73.14,47.65,47.65,0,0,1,25.32,9.28,6.28,6.28,0,0,0,4.17,1.27c15-.41,27.19,5.38,36.49,17.17a5.9,5.9,0,0,0,4.27,2.38,41.7,41.7,0,0,1,21.55,8.27A42.65,42.65,0,0,1,195.43,61a40.74,40.74,0,0,1,1.68,11.15,41.18,41.18,0,0,1-1.74,13.25q-6.41,20.07-26,27.92c-1.82.72-3.76,1.17-5.64,1.74-.18,0-.38.06-.69.11v-.95c0-3.27,0-6.53,0-9.8a18.15,18.15,0,0,0-.79-6.48l.79-.34c8.45-3.29,14.06-9.27,16.32-18a26,26,0,0,0-27.74-32.4A8.46,8.46,0,0,1,143,42.28a26,26,0,0,0-28.68-14.16,8.25,8.25,0,0,1-7.71-2.19,32.09,32.09,0,0,0-11-7A31.31,31.31,0,0,0,54.3,40.54a8.79,8.79,0,0,1-9.45,6.55A23.6,23.6,0,0,0,31.3,49.87,25.45,25.45,0,0,0,17.46,68.79,26,26,0,0,0,34.17,97.54c.26.09.52.2.85.33-.1.37-.2.71-.29,1.06a13.79,13.79,0,0,0-.45,3.51c0,3.88,0,7.77,0,11.66v1a4.43,4.43,0,0,1-.69-.06,42.58,42.58,0,0,1-20.11-10.86A42.38,42.38,0,0,1,1.11,82.11c-.38-1.72-.53-3.5-.8-5.25C.23,76.31.1,75.76,0,75.21V70.82c.1-.46.23-.92.3-1.39.24-1.64.37-3.3.71-4.92A42.55,42.55,0,0,1,18.09,38.14a41.91,41.91,0,0,1,19.06-7.7,5.18,5.18,0,0,0,2.51-1.1,6.33,6.33,0,0,0,1.61-2.25A47.82,47.82,0,0,1,67.21,3.27,44.86,44.86,0,0,1,81.4.14,6.42,6.42,0,0,0,82.14,0Z"/><path d="M98.68,62q24.79,0,49.59,0a7.27,7.27,0,0,1,2.32.32,5.56,5.56,0,0,1,3.92,4.92,9.93,9.93,0,0,1,0,1.09q0,9.34,0,18.68a8.23,8.23,0,0,1-.18,1.92,5.77,5.77,0,0,1-5.51,4.42H49.25a8.64,8.64,0,0,1-2.33-.27,5.65,5.65,0,0,1-4.16-5.44q0-10,0-19.94A5.77,5.77,0,0,1,48.41,62H98.68Zm15.32,24c1.37.18,24.62.11,25.21,0a68.48,68.48,0,0,0-.08-8.22c-1.76-.16-24.47-.08-25.13.09ZM56.8,72.2a3.57,3.57,0,1,0-3.58,3.59A3.57,3.57,0,0,0,56.8,72.2Z"/><path d="M98.61,128H49a7,7,0,0,1-2.41-.34,5.75,5.75,0,0,1-3.85-5.35q0-10,0-19.94A5.75,5.75,0,0,1,48,96.63a11.52,11.52,0,0,1,1.18,0h99a8.27,8.27,0,0,1,2.33.29,5.68,5.68,0,0,1,4,4.93c0,.4,0,.79,0,1.19q0,9.28,0,18.58a8.83,8.83,0,0,1-.17,1.93,5.74,5.74,0,0,1-5.58,4.43c-3.33,0-6.65,0-10,0ZM114,120.62c1.68.16,24.62.09,25.23-.07a72.94,72.94,0,0,0-.08-8.23c-1.38-.17-24.53-.1-25.15.08ZM56.8,106.76a3.57,3.57,0,1,0-3.58,3.59A3.56,3.56,0,0,0,56.8,106.76Z"/><path d="M98.66,162.49H49.15a8.49,8.49,0,0,1-2.25-.25,5.66,5.66,0,0,1-4.13-5.38q0-10,0-20.11a5.74,5.74,0,0,1,5.57-5.59c.31,0,.62,0,.93,0q49.42,0,98.85,0a8.87,8.87,0,0,1,2,.18,5.68,5.68,0,0,1,4.39,5.07c0,.31,0,.62,0,.93,0,6.34,0,12.67,0,19a7.29,7.29,0,0,1-.27,2.08,5.68,5.68,0,0,1-5.09,4c-.4,0-.79,0-1.18,0Zm40.56-15.59c-1.27-.16-24.58-.11-25.21.06v8.2h25.21ZM56.8,141.35a3.57,3.57,0,1,0-3.63,3.53A3.55,3.55,0,0,0,56.8,141.35Z"/><path d="M81.33,185.5v-4.1c1.24,0,2.41,0,3.58,0H92c0-5.17,0-10.28,0-15.37.64-.2,11.64-.28,13.22-.09,0,2.53,0,5.08,0,7.63s0,5.12,0,7.81l3.54,0h7.11v4.08h37.34v13.28H116v4.08H81.34v-4H44.14c-.21-.66-.25-12.18-.07-13.27Z"/></g></g></svg>