<svg 
 xmlns="http://www.w3.org/2000/svg"
 xmlns:xlink="http://www.w3.org/1999/xlink"
 width="101px" height="112px">
<path fill-rule="evenodd"  fill="rgb(51, 111, 137)"
 d="M100.929,50.952 C100.735,52.141 99.994,52.896 98.954,53.403 C98.532,53.609 98.073,53.695 97.601,53.710 C95.322,53.782 93.043,53.855 90.764,53.928 C89.949,53.955 89.135,53.994 88.319,54.011 C86.906,54.040 85.475,53.151 84.979,51.633 C84.203,49.254 85.903,47.062 88.176,46.958 C88.924,46.924 89.673,46.906 90.422,46.881 C92.684,46.807 94.946,46.733 97.209,46.660 C97.575,46.648 97.939,46.653 98.300,46.739 C99.465,47.016 100.287,47.702 100.777,48.783 C100.844,48.931 100.864,49.101 100.909,49.259 C100.935,49.352 100.969,49.443 101.000,49.534 C101.000,49.966 101.000,50.396 101.000,50.827 C100.975,50.869 100.936,50.908 100.929,50.952 ZM93.077,29.775 C92.336,30.251 91.584,30.709 90.836,31.174 C89.030,32.297 87.223,33.418 85.419,34.544 C84.949,34.837 84.452,35.043 83.901,35.143 C82.465,35.404 80.492,34.615 79.938,32.564 C79.527,31.043 80.145,29.509 81.511,28.648 C82.846,27.807 84.193,26.984 85.535,26.153 C86.764,25.392 87.994,24.633 89.220,23.867 C89.827,23.489 90.482,23.274 91.201,23.285 C93.383,23.319 94.751,25.133 94.698,27.362 C94.666,28.075 94.154,29.084 93.077,29.775 ZM75.013,15.210 C74.262,16.612 73.508,18.013 72.760,19.417 C72.449,20.002 72.022,20.476 71.457,20.824 C69.360,22.115 66.601,20.906 66.127,18.497 C65.974,17.718 66.077,16.982 66.419,16.274 C66.549,16.006 66.695,15.745 66.836,15.482 C68.119,13.086 69.401,10.689 70.687,8.295 C70.812,8.062 70.938,7.824 71.101,7.618 C72.039,6.441 73.273,5.980 74.731,6.311 C76.197,6.645 77.071,7.626 77.408,9.082 C77.427,9.162 77.432,9.245 77.439,9.328 C77.449,9.460 77.456,9.592 77.464,9.725 C77.477,10.354 77.305,10.934 77.008,11.485 C76.341,12.726 75.678,13.968 75.013,15.210 ZM76.000,35.507 C77.942,38.889 79.242,42.507 79.941,46.341 C80.370,48.697 80.574,51.072 80.508,53.464 C80.325,60.097 78.490,66.226 74.823,71.787 C73.613,73.622 72.230,75.321 70.646,76.848 C69.327,78.119 68.483,79.646 68.040,81.406 C67.833,82.228 67.705,83.062 67.630,83.905 C67.533,84.995 67.451,86.085 67.335,87.173 C67.188,88.560 66.933,89.927 66.442,91.240 C65.972,92.499 65.295,93.629 64.331,94.578 C64.284,94.625 64.241,94.676 64.198,94.726 C64.188,94.738 64.183,94.755 64.165,94.793 C64.217,94.944 64.376,95.020 64.490,95.132 C65.303,95.926 65.734,96.893 65.727,98.023 C65.720,99.345 65.173,100.425 64.136,101.255 C64.020,101.348 63.899,101.435 63.781,101.526 C63.769,101.535 63.764,101.554 63.736,101.605 C63.764,101.669 63.802,101.756 63.841,101.842 C64.766,103.887 63.891,106.269 61.858,107.230 C61.543,107.378 61.216,107.502 60.890,107.629 C60.701,107.703 60.545,107.803 60.412,107.966 C58.807,109.917 56.711,111.050 54.270,111.605 C53.587,111.760 52.891,111.824 52.197,111.905 C52.017,111.926 51.839,111.967 51.660,111.999 C51.527,111.999 51.394,111.999 51.261,111.999 C50.784,111.935 50.308,111.868 49.831,111.806 C47.246,111.476 44.961,110.510 43.091,108.661 C43.032,108.602 42.966,108.548 42.920,108.481 C42.624,108.055 42.205,107.812 41.732,107.623 C41.394,107.487 41.070,107.311 40.755,107.128 C38.880,106.036 38.175,103.774 39.094,101.820 C39.150,101.701 39.209,101.584 39.278,101.446 C39.191,101.363 39.113,101.282 39.029,101.208 C38.163,100.445 37.682,99.483 37.616,98.341 C37.550,97.196 37.916,96.187 38.714,95.347 C38.827,95.228 38.961,95.128 39.107,95.000 C39.046,94.917 39.015,94.863 38.973,94.821 C37.835,93.700 37.094,92.343 36.589,90.847 C36.217,89.744 35.974,88.611 35.774,87.468 C35.569,86.293 35.393,85.114 35.090,83.957 C34.564,81.952 33.578,80.218 32.063,78.789 C31.516,78.274 31.039,77.702 30.621,77.079 C30.520,76.928 30.402,76.787 30.274,76.658 C26.469,72.821 23.823,68.297 22.205,63.165 C21.566,61.136 21.131,59.065 20.874,56.953 C20.589,54.608 20.524,52.259 20.718,49.906 C21.227,43.768 23.158,38.121 26.684,33.043 C29.327,29.237 32.637,26.139 36.669,23.821 C39.504,22.191 42.536,21.085 45.759,20.514 C47.732,20.164 49.723,20.024 51.725,20.118 C56.916,20.362 61.677,21.929 66.007,24.781 C70.210,27.548 73.505,31.162 76.000,35.507 ZM64.209,31.929 C60.808,29.141 56.933,27.450 52.527,27.027 C50.779,26.858 49.035,26.904 47.302,27.182 C44.900,27.567 42.631,28.347 40.497,29.512 C37.211,31.306 34.531,33.770 32.394,36.822 C29.345,41.179 27.778,46.041 27.507,51.326 C27.384,53.735 27.570,56.127 28.073,58.491 C29.225,63.907 31.708,68.595 35.751,72.431 C35.923,72.594 36.068,72.769 36.168,72.982 C36.332,73.332 36.569,73.626 36.849,73.893 C39.331,76.261 40.944,79.126 41.777,82.438 C42.121,83.806 42.338,85.197 42.574,86.585 C42.693,87.287 42.827,87.985 43.058,88.663 C43.414,89.708 44.115,90.405 45.152,90.776 C45.782,91.001 46.434,91.128 47.096,91.204 C48.403,91.356 49.718,91.387 51.234,91.396 C51.798,91.375 52.563,91.344 53.328,91.318 C54.426,91.279 55.520,91.187 56.604,91.008 C57.278,90.897 57.939,90.734 58.558,90.433 C59.176,90.131 59.663,89.694 59.951,89.065 C60.074,88.795 60.171,88.510 60.250,88.224 C60.422,87.598 60.483,86.953 60.541,86.310 C60.646,85.155 60.730,83.998 60.843,82.844 C60.977,81.473 61.237,80.124 61.646,78.806 C62.448,76.224 63.804,73.978 65.738,72.074 C66.364,71.457 66.969,70.813 67.525,70.133 C71.375,65.420 73.315,59.984 73.622,53.948 C73.701,52.407 73.638,50.868 73.456,49.333 C73.173,46.951 72.612,44.640 71.731,42.409 C70.104,38.290 67.652,34.752 64.209,31.929 ZM50.417,16.196 C48.450,16.004 47.403,14.494 47.245,13.237 C47.216,13.007 47.191,12.776 47.182,12.545 C47.085,9.715 46.990,6.885 46.895,4.054 C46.883,3.674 46.877,3.296 46.942,2.916 C47.223,1.291 48.583,0.249 49.731,0.083 C49.811,0.071 49.885,0.028 49.962,-0.000 C50.295,-0.000 50.628,-0.000 50.961,-0.000 C51.034,0.031 51.105,0.076 51.181,0.091 C52.658,0.373 53.905,1.706 53.966,3.360 C54.035,5.230 54.098,7.100 54.161,8.970 C54.201,10.145 54.238,11.321 54.277,12.496 C54.293,12.963 54.245,13.419 54.085,13.864 C53.537,15.387 52.040,16.355 50.417,16.196 ZM32.537,21.091 C31.137,21.385 29.605,20.765 28.803,19.467 C27.913,18.029 27.010,16.599 26.113,15.164 C25.418,14.054 24.725,12.942 24.028,11.833 C23.752,11.392 23.558,10.926 23.470,10.409 C23.118,8.334 24.744,6.293 27.353,6.343 C28.243,6.377 29.201,6.889 29.902,7.876 C29.969,7.970 30.029,8.070 30.091,8.168 C31.646,10.658 33.200,13.148 34.757,15.637 C35.023,16.063 35.223,16.510 35.319,17.007 C35.642,18.672 34.623,20.652 32.537,21.091 ZM18.128,34.701 C18.045,34.704 17.961,34.702 17.878,34.702 C17.235,34.703 16.635,34.557 16.060,34.255 C13.486,32.902 10.902,31.569 8.326,30.220 C8.034,30.067 7.739,29.893 7.497,29.674 C6.411,28.694 6.038,27.463 6.426,26.067 C6.808,24.688 7.762,23.852 9.175,23.553 C9.974,23.384 10.732,23.518 11.451,23.881 C12.000,24.158 12.538,24.455 13.081,24.743 C15.167,25.846 17.253,26.948 19.338,28.052 C19.543,28.161 19.751,28.269 19.942,28.400 C20.945,29.089 21.466,30.052 21.483,31.259 C21.505,32.809 20.360,34.616 18.128,34.701 ZM12.671,46.595 C14.637,46.538 16.099,47.976 16.299,49.674 C16.530,51.633 15.196,53.238 13.447,53.580 C13.284,53.612 13.117,53.621 12.951,53.627 C12.070,53.661 11.189,53.688 10.308,53.721 C9.593,53.747 8.878,53.777 8.163,53.805 C8.163,53.803 8.163,53.802 8.163,53.800 C6.700,53.846 5.237,53.885 3.774,53.938 C2.909,53.970 2.130,53.746 1.441,53.222 C0.766,52.709 0.349,52.029 0.146,51.214 C0.098,51.022 0.054,50.828 0.024,50.632 C0.004,50.503 -0.010,50.365 0.014,50.239 C0.068,49.947 0.124,49.651 0.221,49.371 C0.712,47.959 1.696,47.126 3.196,46.928 C3.443,46.895 3.693,46.885 3.942,46.876 C5.006,46.839 6.070,46.805 7.134,46.770 C8.980,46.711 10.825,46.648 12.671,46.595 Z"/>
</svg>