<svg 
 xmlns="http://www.w3.org/2000/svg"
 xmlns:xlink="http://www.w3.org/1999/xlink"
 width="98px" height="89px">
<path fill-rule="evenodd"  fill="rgb(51, 111, 137)"
 d="M88.759,18.370 C86.875,17.696 85.612,16.358 84.721,14.639 C84.489,14.193 84.274,14.018 83.760,14.024 C80.943,14.053 78.126,14.037 75.309,14.037 C75.135,14.037 74.960,14.037 74.786,14.037 C74.776,14.076 74.765,14.115 74.755,14.154 C75.044,14.337 75.329,14.525 75.621,14.702 C79.899,17.299 83.723,20.436 86.948,24.277 C92.001,30.296 95.163,37.202 96.498,44.931 C96.860,47.026 97.004,49.161 97.187,51.283 C97.238,51.866 97.129,52.484 96.987,53.060 C96.731,54.097 95.718,54.774 94.650,54.706 C93.688,54.646 92.861,53.901 92.726,52.846 C92.521,51.245 92.395,49.633 92.222,48.026 C91.524,41.517 89.293,35.568 85.557,30.205 C80.041,22.286 72.559,17.150 63.252,14.657 C62.436,14.439 61.600,14.292 60.636,14.082 C60.636,15.170 60.650,16.183 60.632,17.197 C60.605,18.697 60.546,20.196 60.523,21.697 C60.517,22.021 60.381,22.228 60.196,22.480 C59.618,23.268 58.859,23.395 57.938,23.392 C52.355,23.366 46.771,23.397 41.187,23.400 C40.488,23.400 39.788,23.354 39.090,23.316 C38.247,23.271 37.680,22.869 37.528,22.037 C37.355,21.091 37.269,20.123 37.220,19.161 C37.143,17.646 37.130,16.128 37.088,14.612 C37.084,14.466 37.067,14.319 37.046,14.051 C35.473,14.458 33.918,14.760 32.430,15.262 C23.821,18.165 16.816,23.224 11.768,30.852 C8.604,35.633 6.639,40.885 5.802,46.550 C5.536,48.345 5.407,50.160 5.204,51.964 C5.162,52.343 5.098,52.724 5.001,53.092 C4.730,54.122 3.892,54.759 2.890,54.723 C1.844,54.687 0.790,53.876 0.709,52.866 C0.621,51.760 0.654,50.635 0.729,49.525 C1.111,43.793 2.528,38.329 5.067,33.168 C8.798,25.583 14.315,19.620 21.469,15.150 C21.964,14.841 22.455,14.527 22.946,14.214 C22.972,14.197 22.987,14.165 23.046,14.093 C22.895,14.076 22.777,14.050 22.658,14.050 C19.775,14.047 16.891,14.054 14.008,14.039 C13.661,14.037 13.529,14.179 13.385,14.466 C12.142,16.940 10.254,18.507 7.397,18.753 C4.049,19.041 0.623,16.399 0.100,13.084 C0.079,12.955 0.034,12.830 -0.000,12.704 C-0.000,12.104 -0.000,11.503 -0.000,10.903 C0.027,10.845 0.068,10.788 0.079,10.726 C0.693,7.167 3.231,4.998 6.848,4.962 C8.065,4.949 9.268,4.958 10.361,5.671 C11.633,6.501 12.682,7.514 13.322,8.901 C13.521,9.332 13.786,9.447 14.242,9.446 C21.672,9.432 29.102,9.436 36.532,9.435 C36.739,9.435 36.947,9.413 37.184,9.400 C37.184,9.161 37.184,8.979 37.185,8.798 C37.193,7.016 37.185,5.233 37.218,3.450 C37.229,2.854 37.302,2.252 37.422,1.668 C37.592,0.837 38.129,0.352 38.976,0.285 C40.221,0.187 41.470,0.152 42.717,0.086 C43.180,0.062 43.643,0.029 44.106,-0.001 C47.373,-0.001 50.640,-0.001 53.907,-0.001 C54.104,0.022 54.301,0.057 54.499,0.064 C55.731,0.113 56.964,0.144 58.195,0.201 C59.794,0.275 60.433,0.856 60.499,2.472 C60.586,4.569 60.580,6.670 60.613,8.769 C60.617,8.966 60.614,9.163 60.614,9.408 C60.827,9.418 61.003,9.435 61.180,9.435 C68.747,9.436 76.314,9.433 83.882,9.445 C84.272,9.446 84.479,9.332 84.643,8.977 C85.275,7.609 86.290,6.583 87.532,5.739 C88.800,4.878 90.219,5.057 91.625,4.945 C94.539,4.715 97.452,7.765 97.916,10.440 C98.890,16.059 93.515,20.069 88.759,18.370 ZM6.887,9.477 C5.688,9.499 4.647,10.546 4.652,11.726 C4.658,13.034 5.706,14.053 7.028,14.036 C8.286,14.020 9.140,13.083 9.121,11.739 C9.102,10.354 8.212,9.453 6.887,9.477 ZM55.942,4.869 C51.310,4.869 46.673,4.869 42.030,4.869 C42.030,9.543 42.030,14.182 42.030,18.785 C46.665,18.785 51.269,18.785 55.942,18.785 C55.942,14.093 55.942,9.488 55.942,4.869 ZM91.036,9.480 C89.818,9.487 88.775,10.533 88.779,11.745 C88.784,13.055 89.785,14.048 91.090,14.036 C92.376,14.024 93.347,13.007 93.338,11.678 C93.330,10.452 92.305,9.473 91.036,9.480 ZM26.626,84.697 C27.175,84.450 27.796,84.337 28.397,84.235 C28.887,84.153 29.394,84.167 29.893,84.156 C30.391,84.144 30.890,84.153 31.490,84.153 C31.132,82.724 30.792,81.388 30.463,80.049 C28.925,73.795 27.398,67.539 25.842,61.289 C25.615,60.378 25.710,59.620 26.237,58.809 C30.355,52.467 34.402,46.079 38.537,39.749 C41.379,35.399 44.320,31.113 47.234,26.810 C48.089,25.547 49.724,25.538 50.585,26.812 C54.028,31.903 57.496,36.978 60.852,42.127 C64.561,47.819 68.154,53.588 71.812,59.314 C72.162,59.863 72.221,60.373 72.063,61.004 C70.191,68.495 68.344,75.992 66.488,83.488 C66.344,84.070 66.363,84.100 66.974,84.137 C68.054,84.202 69.146,84.188 70.209,84.357 C71.835,84.617 72.573,85.827 72.119,87.291 C71.863,88.115 71.145,88.714 70.281,88.733 C65.800,88.836 61.319,88.987 56.837,88.996 C48.621,89.014 40.405,88.953 32.189,88.904 C30.624,88.895 29.059,88.805 27.494,88.734 C26.595,88.693 25.819,88.007 25.625,87.128 C25.390,86.063 25.741,85.095 26.626,84.697 ZM49.254,72.581 C49.138,72.587 49.021,72.582 48.905,72.582 C48.899,72.552 48.894,72.522 48.888,72.491 C48.377,72.602 47.795,72.596 47.371,72.852 C46.712,73.252 46.435,74.705 46.750,75.413 C47.539,77.184 49.620,77.409 50.780,75.861 C51.359,75.089 51.227,74.315 50.898,73.502 C50.590,72.741 49.997,72.542 49.254,72.581 ZM35.456,81.002 C35.705,82.012 35.883,83.041 36.110,84.145 C36.160,84.148 36.307,84.160 36.455,84.160 C43.206,84.156 49.956,84.157 56.707,84.141 C58.223,84.137 59.739,84.074 61.254,84.029 C61.497,84.022 61.739,84.025 61.807,83.668 C62.006,82.638 62.216,81.610 62.469,80.593 C64.080,74.100 65.708,67.610 67.313,61.114 C67.368,60.892 67.319,60.583 67.199,60.389 C66.493,59.259 65.754,58.149 65.022,57.036 C60.583,50.285 56.143,43.534 51.702,36.785 C51.599,36.629 51.482,36.482 51.372,36.330 C51.328,36.345 51.283,36.359 51.239,36.373 C51.239,36.954 51.240,37.534 51.239,38.114 C51.226,47.534 51.237,56.954 51.171,66.373 C51.163,67.511 51.458,68.119 52.479,68.676 C55.013,70.061 56.309,73.084 55.760,75.882 C54.981,79.854 51.161,82.298 47.187,81.366 C44.016,80.623 41.737,77.300 42.032,73.990 C42.261,71.428 43.450,69.567 45.735,68.398 C45.913,68.307 46.077,68.189 46.259,68.107 C46.519,67.992 46.608,67.820 46.607,67.527 C46.573,57.274 46.548,47.021 46.520,36.768 C46.520,36.625 46.504,36.483 46.489,36.220 C46.277,36.526 46.125,36.736 45.983,36.952 C40.893,44.710 35.806,52.471 30.705,60.222 C30.469,60.580 30.448,60.885 30.547,61.281 C32.193,67.852 33.831,74.426 35.456,81.002 Z"/>
</svg>