<svg 
 xmlns="http://www.w3.org/2000/svg"
 xmlns:xlink="http://www.w3.org/1999/xlink"
 width="97px" height="97px">
<path fill-rule="evenodd"  fill="rgb(51, 111, 137)"
 d="M96.632,20.750 C90.644,26.734 84.654,32.716 78.672,38.707 C78.408,38.972 78.147,39.086 77.769,39.085 C72.539,39.073 67.308,39.081 62.078,39.068 C61.683,39.067 61.407,39.186 61.121,39.450 C54.597,45.471 48.064,51.482 41.533,57.495 C41.427,57.593 41.314,57.685 41.171,57.807 C39.972,56.075 38.792,54.372 37.587,52.633 C39.719,50.684 41.801,48.781 43.884,46.878 C47.928,43.183 51.970,39.485 56.022,35.798 C56.268,35.574 56.348,35.347 56.347,35.028 C56.339,29.779 56.345,24.531 56.335,19.283 C56.334,18.925 56.424,18.680 56.703,18.435 C60.815,14.816 64.963,11.235 69.001,7.535 C71.493,5.253 73.814,2.783 76.209,0.395 C76.324,0.280 76.406,0.132 76.503,-0.001 C76.559,0.021 76.616,0.042 76.672,0.064 C77.203,6.273 77.733,12.481 78.268,18.741 C84.496,19.273 90.700,19.804 97.000,20.343 C96.840,20.521 96.741,20.641 96.632,20.750 ZM71.536,25.455 C71.536,21.565 71.536,17.740 71.536,13.915 C71.487,13.888 71.437,13.861 71.388,13.834 C71.293,13.968 71.214,14.119 71.100,14.234 C68.537,16.803 65.974,19.372 63.400,21.930 C63.147,22.182 63.037,22.430 63.039,22.792 C63.052,26.322 63.047,29.852 63.047,33.383 C63.047,33.561 63.047,33.739 63.047,33.942 C63.224,33.958 63.352,33.979 63.480,33.979 C67.108,33.981 70.736,33.985 74.364,33.968 C74.579,33.967 74.843,33.843 74.998,33.689 C77.634,31.076 80.256,28.450 82.880,25.826 C82.966,25.740 83.041,25.641 83.200,25.455 C79.258,25.455 75.430,25.455 71.536,25.455 ZM14.603,69.687 C13.664,68.781 12.987,67.676 12.547,66.461 C12.085,65.187 13.349,63.707 14.979,63.714 C15.602,63.751 16.243,64.043 16.673,64.741 C17.105,65.443 17.561,66.130 18.001,66.827 C18.583,67.750 18.349,68.966 17.452,69.709 C16.596,70.417 15.374,70.430 14.603,69.687 ZM19.955,70.892 C20.265,70.867 20.634,70.943 20.898,71.102 C21.459,71.439 22.027,71.801 22.489,72.257 C26.037,75.752 30.143,78.320 34.882,79.871 C35.960,80.224 36.663,81.249 36.499,82.182 C36.252,83.585 35.335,84.531 33.973,84.530 C33.559,84.402 32.907,84.234 32.277,84.003 C26.938,82.047 22.329,78.980 18.428,74.847 C17.752,74.132 17.612,73.270 17.964,72.367 C18.310,71.476 19.005,70.969 19.955,70.892 ZM39.333,67.872 C42.233,68.422 45.127,68.306 47.930,67.346 C52.352,65.830 54.975,62.676 55.930,58.147 C56.207,56.832 56.248,55.466 56.363,54.121 C56.524,52.237 57.991,50.894 59.868,50.948 C61.595,50.998 63.104,52.489 63.045,54.231 C62.997,55.627 62.931,57.052 62.617,58.405 C60.614,67.042 55.251,72.387 46.640,74.469 C46.161,74.586 45.668,74.657 45.177,74.706 C44.324,74.790 43.468,74.841 42.968,74.880 C32.730,74.901 24.148,67.711 22.474,58.008 C20.785,48.220 26.148,38.817 35.442,35.290 C37.602,34.470 39.844,33.998 42.157,34.024 C43.799,34.044 45.222,34.716 45.732,36.565 C46.338,38.760 44.634,40.796 42.344,40.760 C39.549,40.715 36.910,41.349 34.527,42.852 C31.891,44.515 30.247,46.929 29.462,49.913 C28.617,53.125 28.619,56.360 29.635,59.530 C31.153,64.268 34.514,66.957 39.333,67.872 ZM51.002,18.598 C50.334,18.946 49.611,19.070 48.890,18.920 C47.459,18.625 46.022,18.522 44.565,18.533 C41.991,18.552 39.422,18.583 36.864,18.947 C23.056,20.909 11.907,30.144 8.163,43.867 C5.585,53.316 6.230,62.596 10.649,71.411 C15.100,80.291 22.262,86.078 31.790,88.784 C40.791,91.342 49.713,90.903 58.268,87.006 C68.607,82.296 74.908,74.171 77.516,63.167 C78.713,58.117 78.759,53.000 78.018,47.874 C77.951,47.404 77.755,46.948 77.724,46.479 C77.598,44.585 79.025,42.985 80.855,42.921 C82.809,42.852 84.274,44.267 84.393,46.208 C84.458,47.271 84.729,48.321 84.876,49.381 C85.271,52.223 85.261,55.077 85.032,57.927 C84.617,63.072 83.368,68.019 81.071,72.643 C74.762,85.344 64.666,93.236 50.780,96.187 C48.918,96.583 46.992,96.680 45.097,96.918 C44.952,96.936 44.809,96.972 44.665,97.000 C43.312,97.000 41.959,97.000 40.606,97.000 C39.655,96.906 38.704,96.820 37.756,96.715 C32.555,96.140 27.608,94.683 22.999,92.214 C11.907,86.275 4.656,77.224 1.370,65.062 C0.005,60.009 -0.307,54.856 0.287,49.652 C1.266,41.071 4.534,33.463 10.128,26.893 C16.328,19.610 24.131,14.929 33.466,12.827 C37.944,11.819 42.484,11.657 47.046,11.952 C48.012,12.015 49.003,12.126 49.919,12.417 C50.630,12.643 51.288,13.127 51.883,13.604 C52.390,14.011 52.618,14.643 52.703,15.305 C52.880,16.684 52.221,17.964 51.002,18.598 Z"/>
</svg>