<svg xmlns="http://www.w3.org/2000/svg" viewBox="0 0 222.34 222.3" fill="#336f89"><title>Asset 2</title><g id="Layer_2" data-name="Layer 2"><g id="Layer_1-2" data-name="Layer 1"><path d="M0,44.63c.07-1.58.13-3.16.21-4.74.14-2.75.29-5.51.44-8.26a9.6,9.6,0,0,1,2-5.45c2.69-3.47,5.56-6.8,10.14-7.7a37.32,37.32,0,0,1,6.76-.57q19-.18,38-.23c15.69,0,31.39,0,47.08-.06.92,0,1.24.31,1.6,1.12.78,1.8,1.76,3.5,2.7,5.23.35.65.79,1.27,1.37,2.18h-4.49c-15.73.06-31.46.1-47.19.2q-18.66.12-37.32.36a56.89,56.89,0,0,0-6.11.46,6.75,6.75,0,0,0-5.64,5.69c-.32,4-.58,8-.59,12q-.11,48.67-.08,97.34c0,1.74.11,3.48.18,5.22a8.89,8.89,0,0,0,3.36,6.33,5,5,0,0,0,3,.9c6.72.28,13.45.62,20.17.64q51.92.09,103.81,0c10.17,0,20.35-.13,30.52-.29,4.37-.07,7.37-3,7.76-7.39.24-2.67.39-5.36.41-8,.06-9.91,0-19.81.05-29.72v-1.06c.16,0,.29,0,.35.06a24.1,24.1,0,0,0,7.45,4.88,1.35,1.35,0,0,1,.93,1.45c-.11,18.3-.17,36.6-.33,54.91a8.11,8.11,0,0,1-1.11,3.51c-3.38,6.37-8.34,10.44-15.9,10.58-3.51.07-7,.18-10.55.2q-18.42.15-36.86.24h-2.21c.29.74.49,1.26.71,1.76,3.68,8.57,7.39,17.12,11.05,25.7.49,1.14.75,2.37,1.15,3.55a4.76,4.76,0,0,1-4.07,6.09c-2.45.14-4.9.27-7.35.42-.6,0-1.2.09-1.8.14H67.17l-1.8-.15c-2.63-.17-5.29-.22-7.9-.56a4.35,4.35,0,0,1-3.54-5.21A23.38,23.38,0,0,1,55.28,212c3.59-8.44,7.25-16.85,10.88-25.27.25-.57.44-1.16.71-1.88-1-.05-1.81-.12-2.63-.13q-20.31-.15-40.61-.3c-2.72,0-5.45,0-8.16-.24-5.05-.41-8.83-3.13-11.83-7a14.46,14.46,0,0,1-3.31-9.08c0-5.56-.12-11.12-.2-16.67,0-.64-.09-1.28-.13-1.91ZM99.85,170.76c.45-2.78-2.61-6.15-6.41-6.27-3.24-.1-6.49,2.85-6.52,5.85,0,4.23,2.63,7.33,6.39,7.42S99.79,174.78,99.85,170.76Z"/><path d="M138.55,98.81,120.48,80.74l62.81-63.18L186,20l-60,60,2.58,2.44,59.69-59.69L201.4,36Z"/><path d="M144.88,50.39c-2.43-2.62-4.73-5.07-7-7.55q-10.24-11.22-20.46-22.47a16,16,0,0,1-3.94-9.58c-.62-7.3,4.76-11.93,12-10.54a13.22,13.22,0,0,1,8.17,4.88C136.33,8.54,139,12,141.5,15.52c4.93,6.88,9.73,13.85,14.66,20.73a1.7,1.7,0,0,1-.17,2.59C152.3,42.63,148.65,46.46,144.88,50.39ZM123,2.82c2.62,2.24,5.32,4.38,7.23,7.54l3.23-2.61A11.52,11.52,0,0,0,123,2.82Z"/><path d="M186.45,14.15c2.49-2.32,5-4.73,7.58-7a6.83,6.83,0,0,1,6.65-1.51,4.22,4.22,0,0,1,1.76,1c3.58,3.4,7.12,6.86,10.67,10.31a1.16,1.16,0,0,1,.35.56c.4,2.78.5,5.55-1.5,7.84-2.26,2.58-4.62,5.07-6.87,7.53Z"/><path d="M222.34,107.66a30.54,30.54,0,0,1-3.12.58c-7.85.7-15.7,1.08-23.47-.76a29.88,29.88,0,0,1-8.67-3.2c-3.71-2.22-4.46-6.3-1.66-9.64s5.92-5.68,10.35-6.1,7.31,1.1,9.2,5c.69,1.42,1.2,2.93,1.8,4.4.35.87.72,1.74,1.07,2.62,1.5,3.84,4.41,5.68,8.43,6,1.59.12,3.16.29,4.74.46.44,0,.86.16,1.29.24Z"/><path d="M111.31,107.58l5.84-23.72c6.56,5.65,12.23,11.84,18.39,17.93C127.36,103.77,119.56,106,111.31,107.58Z"/><path d="M177.15,66.38c.51.65.85,1.06,1.16,1.48,3.52,4.87,7.05,9.72,10.56,14.6,1.79,2.51,1.79,2.55-.43,4.6-1.21,1.13-2.49,2.2-3.8,3.23-1.95,1.53-2,1.52-3.63-.29-2.89-3.2-5.75-6.41-8.63-9.62l-4.47-5Z"/></g></g></svg>