<svg xmlns="http://www.w3.org/2000/svg" viewBox="0 0 222.34 205.51" fill="#336f89"><title>Asset 4</title><g id="Layer_2" data-name="Layer 2"><g id="Layer_1-2" data-name="Layer 1"><path d="M179.71,205.51l-7.31-2.72c-1.61-.6-2-1.46-1.45-3.08.66-1.85,1.36-3.68,2-5.54a1.17,1.17,0,0,0-.2-1c-1.43-1.23-2.91-2.4-4.49-3.69l-5.35,3.07c-1.83,1.05-2.64.83-3.69-1-1.14-2-2.28-3.91-3.41-5.88-.85-1.5-.6-2.4.91-3.28l5.6-3.22c-.36-2.1-.72-4.17-1.09-6.35-2.05-.36-4.16-.75-6.27-1.11-1.82-.31-2.37-1.06-2.05-2.9.4-2.3.79-4.61,1.2-6.92a2.06,2.06,0,0,1,2.74-1.9c1.86.34,3.72.65,5.57,1a1.09,1.09,0,0,0,1.42-.68c.79-1.58,1.71-3.1,2.65-4.77l-4.1-4.92c-1.17-1.4-1.11-2.31.25-3.47,1.81-1.55,3.64-3.08,5.47-4.6a2,2,0,0,1,3.24.32c1.25,1.47,2.51,2.93,3.71,4.43a1,1,0,0,0,1.42.35,41.82,41.82,0,0,1,4.35-1.58,1,1,0,0,0,.81-1.11c0-1.93,0-3.86,0-5.79,0-1.71.72-2.39,2.43-2.4h7c1.7,0,2.41.71,2.42,2.42,0,1.93,0,3.85,0,5.78a1,1,0,0,0,.82,1.1,46,46,0,0,1,4.35,1.59,1,1,0,0,0,1.42-.37c1.21-1.5,2.46-3,3.7-4.44a2,2,0,0,1,3.23-.34q2.85,2.34,5.65,4.74a2,2,0,0,1,.26,3.15c-1.43,1.75-2.9,3.48-4.26,5.11,1,1.73,1.91,3.32,2.75,5,.3.59.66.61,1.18.52l5.57-1c1.76-.31,2.56.23,2.88,2l1.23,6.91a2.12,2.12,0,0,1-1.88,2.79c-1.89.35-3.79.68-5.7,1a1.09,1.09,0,0,0-1.09,1.12c-.21,1.76-.54,3.5-.84,5.41l5.33,3.07c1.82,1.06,2,1.89,1,3.68-1.15,2-2.29,4-3.46,6a2,2,0,0,1-3.14.83c-1.91-1.08-3.8-2.19-5.68-3.27-1.57,1.27-3.13,2.5-4.64,3.79a1.2,1.2,0,0,0-.06,1c.56,1.65,1.17,3.27,1.76,4.9.87,2.39.59,3-1.84,3.89-2.23.82-4.45,1.66-6.67,2.49h-.91a11,11,0,0,1-1.57-2.07c-.73-1.68-1.27-3.46-1.95-5.17a1.15,1.15,0,0,0-.81-.67c-1.91-.06-3.83,0-5.8,0-.71,1.94-1.34,3.88-2.13,5.74a12.2,12.2,0,0,1-1.58,2.2Zm7.72-45.06A10.69,10.69,0,1,0,198.26,171,10.66,10.66,0,0,0,187.43,160.45Z"/><path d="M207.65,133.72l-6.53,1-.07.36c-.17-.32-.33-.65-.5-1a9.45,9.45,0,0,0-6.66-5c-1.06-.21-1.21-.63-1.21-1.55q0-40.67,0-81.33V44.72H15.05v129h1.53q63.93,0,127.86,0a2.14,2.14,0,0,1,2.16,1.14,30.42,30.42,0,0,0,3,3.53,10.14,10.14,0,0,0-1,10.35H13.17c-6.42,0-11.35-3.68-12.79-9.6A13.61,13.61,0,0,1,0,175.84q0-81.51,0-163C0,5.4,5.46,0,13,0H194.59c5.95,0,10.69,3.24,12.4,8.6a14.36,14.36,0,0,1,.64,4.23q0,60.06,0,120.13ZM179,23.55c0,.87,0,1.74,0,2.6a4.58,4.58,0,0,0,4.68,4.65c1.47,0,3,0,4.42,0a4.6,4.6,0,0,0,4.71-4.63c0-1.73,0-3.47,0-5.21a4.55,4.55,0,0,0-4.41-4.57,46,46,0,0,0-5,0A4.53,4.53,0,0,0,179,21.06C179,21.89,179,22.72,179,23.55Zm-42.87.05c0,.87,0,1.74,0,2.61a4.58,4.58,0,0,0,4.51,4.58c1.59,0,3.18,0,4.76,0A4.57,4.57,0,0,0,150,26.35c.06-1.85.06-3.7,0-5.55a4.4,4.4,0,0,0-4-4.34,34.62,34.62,0,0,0-5.76,0,4.44,4.44,0,0,0-4,4.54C136.13,21.87,136.15,22.73,136.15,23.6Zm35.2,0h0c0-.83,0-1.66,0-2.49a4.53,4.53,0,0,0-4.46-4.73,46.54,46.54,0,0,0-4.87,0,4.33,4.33,0,0,0-4.36,4,40.93,40.93,0,0,0,0,6.55A4.37,4.37,0,0,0,162,30.79q2.49.08,5,0a4.51,4.51,0,0,0,4.37-4.36C171.39,25.49,171.35,24.55,171.35,23.6Z"/><path d="M114.83,59.85A6.46,6.46,0,0,1,121,68.47c-2,6.44-4.14,12.86-6.22,19.29Q107,112,99.16,136.24A6.48,6.48,0,0,1,92.4,141a6.36,6.36,0,0,1-6-5.61,8.25,8.25,0,0,1,.41-3.44q7.71-24,15.5-48,3.1-9.58,6.19-19.18A6.51,6.51,0,0,1,114.83,59.85Z"/><path d="M145.09,100.58l-3.68-1.73-17-7.93a6.56,6.56,0,0,1-3.85-6.61,6.54,6.54,0,0,1,9.3-5.34q16.53,7.68,33.06,15.39a6.86,6.86,0,0,1-.07,12.47q-16.49,7.67-33,15.33a6.47,6.47,0,0,1-8.73-3.09,6.58,6.58,0,0,1,3.33-8.84c6.5-3,13-6,19.51-9.08C144.29,101,144.62,100.82,145.09,100.58Z"/><path d="M62.59,100.6,71,104.53c4.14,1.93,8.3,3.81,12.42,5.79a6.58,6.58,0,0,1,2.72,9.54,6.48,6.48,0,0,1-8.48,2.23q-9.51-4.4-19-8.84c-4.62-2.15-9.25-4.28-13.86-6.45a6.42,6.42,0,0,1-4-6.19,6.49,6.49,0,0,1,4.07-6.26c.58-.28,1.16-.54,1.74-.81q15.56-7.25,31.12-14.47A6.49,6.49,0,0,1,87,83.19,6.57,6.57,0,0,1,83.25,91c-5.94,2.8-11.9,5.55-17.86,8.32Z"/></g></g></svg>