<svg xmlns="http://www.w3.org/2000/svg" viewBox="0 0 213.41 213.34" fill="#336f89"><title>Asset 8</title><g id="Layer_2" data-name="Layer 2"><g id="Layer_1-2" data-name="Layer 1"><path d="M0,16.53c.29-1.19.51-2.4.88-3.56A18.48,18.48,0,0,1,18.37,0Q63,0,107.51,0a2.49,2.49,0,0,1,1.61.83q17.73,19,35.41,38.11L150,44.89c-2.14,2.16-4.25,4.28-6.47,6.5l-32.17-34.3c0,.45-.1.71-.1,1,0,10.89,0,21.77,0,32.66a9.29,9.29,0,0,0,9.65,9.57H134.7c-.07.18-.08.29-.14.35-2.82,2.83-5.63,5.66-8.47,8.47a1.38,1.38,0,0,1-.81.45c-3.26,0-6.53.23-9.73-.69a18.34,18.34,0,0,1-13.48-17.51c-.11-9.57,0-19.15,0-28.73V10c0-.17,0-.35,0-.64-.41,0-.79-.06-1.17-.06q-40.82,0-81.64,0c-5,0-8.69,2.79-9.68,7.36a12.19,12.19,0,0,0-.19,2.49q0,87.51,0,175c0,5.05,2.86,8.75,7.5,9.68a13.78,13.78,0,0,0,2.49.18q64.17,0,128.33,0c5.78,0,9.3-3.82,9.91-7.79a15.75,15.75,0,0,0,.12-2.38q0-31.68,0-63.35a2.5,2.5,0,0,1,.83-2c2.54-2.49,5-5,7.56-7.53.24-.25.5-.47.93-.86v1.38c0,24.13-.07,48.26,0,72.39,0,11-8,18.39-16.38,19.22a1.49,1.49,0,0,0-.39.17H16.76a3.47,3.47,0,0,0-.6-.19A18.56,18.56,0,0,1,.54,199.21c-.2-.8-.36-1.61-.54-2.42Z"/><path d="M83.37,157.58c1.22-3.25,2.37-6.33,3.53-9.4q7.92-21,15.87-42a4.51,4.51,0,0,1,1-1.53q35.53-35.58,71.11-71.13c6.92-6.91,17.28-7.79,24.69-1.76a69.19,69.19,0,0,1,9.84,9.82c6,7.37,5.18,17.82-1.7,24.7q-29.23,29.26-58.5,58.49-6.27,6.27-12.55,12.53a4.65,4.65,0,0,1-1.61,1.06q-25.38,9.48-50.8,18.93ZM168.58,53.12,119.8,101.89l19.36,19.36L188,72.47ZM99.31,141.63c.6-.19.91-.28,1.21-.39,9.76-3.64,19.53-7.25,29.28-11a13.71,13.71,0,0,0,2.75-1.9l-19.93-19.93a20.07,20.07,0,0,0-2,3.2c-3.15,8.17-6.21,16.37-9.3,24.57C100.68,137.94,100.05,139.66,99.31,141.63Zm95.46-75.89c2.37-2.3,4.93-4.53,7.18-7a9.07,9.07,0,0,0-.25-12.12c-2.33-2.48-4.75-4.89-7.23-7.22A8.82,8.82,0,0,0,183,38.76c-2.8,2.26-5.25,5-7.79,7.41Z"/><path d="M32.5,134.5v-9.23h56l-1.68,4.52c-.49,1.29-1,2.56-1.45,3.87a1.09,1.09,0,0,1-1.25.86c-4.13,0-8.27,0-12.4,0H32.5Z"/><path d="M78.78,97.47v9.13H32.51V97.47Z"/><path d="M32.53,69.64H78.75v9.09H32.53Z"/><path d="M32.48,162.24v-9.12H77.89a3.7,3.7,0,0,1-.09.55c-1,2.64-2,5.3-3,7.92a1.35,1.35,0,0,1-1,.7q-20.36.06-40.71,0A4.66,4.66,0,0,1,32.48,162.24Z"/><path d="M134.43,153.09v9.16H89.78c.52-.24.79-.38,1.07-.48q11.3-4.2,22.59-8.39a4.24,4.24,0,0,1,1.47-.33q9.41,0,18.81,0C133.93,153,134.15,153.07,134.43,153.09Z"/></g></g></svg>