<svg xmlns="http://www.w3.org/2000/svg" viewBox="0 0 232.57 166.63" fill="#336f89"><title>Asset 6</title><g id="Layer_2" data-name="Layer 2"><g id="Layer_1-2" data-name="Layer 1"><path d="M81.7,112.65c.52.71.89,1.25,1.3,1.77q12.93,16.41,25.88,32.83c2.36,3,2.22,4.55-.88,6.78-4.48,3.21-9,6.44-13.62,9.37-6,3.8-12.36,4.62-18.66.43a14.7,14.7,0,0,1-3-2.77Q56,141,39.35,120.93a3.6,3.6,0,0,0-3.74-1.51c-3.72.48-7.54,1-11.23.66-7.52-.75-13.42-4.73-17.46-11A41.22,41.22,0,0,1,1.83,74,23.13,23.13,0,0,1,17.39,57.72a65.26,65.26,0,0,1,10.73-2.1c14.58-2.14,29.19-4.07,43.75-6.33a113,113,0,0,0,28.66-8.2A51.94,51.94,0,0,0,127.07,15.2c1.25-2.62,2.46-5.28,3.87-7.82,2-3.67,4.92-6.39,9.2-7.17A12.59,12.59,0,0,1,154.83,10.6c1.45,9.49,2.8,19,4.19,28.49q6.25,42.45,12.52,84.9c1.17,7.87-2.45,14.1-9.42,15.75-4.48,1.06-8.32-.4-11.65-3.35a34.8,34.8,0,0,1-3.84-4c-11.87-14.5-27.42-20.92-45.87-20.81-5.87,0-11.74.54-17.6.85A12.4,12.4,0,0,0,81.7,112.65Zm8.58-8.07h2.33c4.58,0,9.18-.13,13.74.17,13.49.88,26,4.75,36.3,13.83,3.76,3.3,7.09,7.08,10.64,10.61a26,26,0,0,0,3,2.74,4.78,4.78,0,0,0,5.89.17,5.35,5.35,0,0,0,2.53-5.55q-8.43-57.06-16.8-114.12c-.42-2.89-1.94-4.66-4.49-5.22-2.31-.51-4.38.43-5.9,2.91a44,44,0,0,0-2.44,4.79C130.21,25.48,123.77,34.8,114,41.46A84.8,84.8,0,0,1,89.88,52.39c-2.3.67-4.61,1.29-7,2C85.37,71.18,87.82,87.83,90.28,104.58ZM76,56a7.39,7.39,0,0,0-1.08,0Q49,59.72,23.22,63.48C15.56,64.6,10.57,69,8.5,76.37a34.17,34.17,0,0,0,4.15,28.54c4.17,6.58,10.35,9.33,18.17,8.13q21.75-3.35,43.51-6.64c2.91-.44,5.83-.8,8.89-1.22C80.79,88.67,78.38,72.34,76,56ZM46.17,118c.65.82,1,1.31,1.42,1.78l30.2,36.27c2.87,3.44,6.45,4.61,10.42,2.5,4.71-2.52,9.09-5.66,13.66-8.56a10.42,10.42,0,0,0-.58-1Q88,132.13,74.62,115.18a2.35,2.35,0,0,0-2.6-.81L58.23,116.3C54.31,116.85,50.4,117.42,46.17,118Z"/><path d="M232.57,66.66c-.23,16.81-5.47,31.21-16.25,43.52a16.6,16.6,0,0,1-1.94,2,3.44,3.44,0,0,1-4.58-.2,3.5,3.5,0,0,1-.53-4.42,9.24,9.24,0,0,1,1.06-1.28c24.83-27.26,18.2-71.28-13.55-90a10.18,10.18,0,0,1-1.41-.89,3.49,3.49,0,0,1,3.43-6,11.93,11.93,0,0,1,2,1c18.84,11.84,29.19,28.94,31.5,51C232.47,63.32,232.49,65.24,232.57,66.66Z"/><path d="M202.65,64.32c-.16,12.55-4.68,22.24-12,30.79a3.52,3.52,0,1,1-5.39-4.52,47.31,47.31,0,0,0,7.85-12.77c5.32-13.57,1.77-27.57-9.64-37.71a69.93,69.93,0,0,0-6.06-4.6c-2.08-1.48-2.72-3.42-1.6-5.21s3.28-2.14,5.37-.77C191.85,36.46,199.45,45.62,202,58.4,202.4,60.7,202.5,63.07,202.65,64.32Z"/><path d="M24.47,81.69c-2.46.1-4-1.15-4.22-3.1s1-3.58,3.32-3.93c6.9-1.06,13.82-2,20.72-3,1.59-.24,3.18-.53,4.78-.68A3.57,3.57,0,0,1,53,73.86a3.44,3.44,0,0,1-2.8,4C41.51,79.19,32.83,80.45,24.47,81.69Z"/><path d="M26.54,98.8a3.54,3.54,0,1,1-.57-7c4.21-.67,8.43-1.27,12.65-1.88l12.1-1.76c2.57-.37,4.45.77,4.76,2.92s-1.08,3.68-3.6,4l-24,3.58C27.38,98.73,26.88,98.76,26.54,98.8Z"/></g></g></svg>