<?xml version="1.0" encoding="utf-8"?>
<!-- Generator: Adobe Illustrator 24.0.0, SVG Export Plug-In . SVG Version: 6.00 Build 0)  -->
<svg version="1.1" id="Layer_1" xmlns="http://www.w3.org/2000/svg" xmlns:xlink="http://www.w3.org/1999/xlink" x="0px" y="0px"
	 viewBox="0 0 800 800" enable-background="new 0 0 800 800" xml:space="preserve">
<g enable-background="new    ">
	<path fill="#231F20" d="M133.805,647.495h-16.211v-6.826c0-0.567-0.286-0.853-0.853-0.853H62.989c-0.57,0-0.854,0.285-0.854,0.853
		v53.874c0,0.569,0.284,0.854,0.854,0.854h53.752c0.567,0,0.853-0.284,0.853-0.854v-16.576H97.726v-16.089h36.079v32.665
		c0,2.357-0.448,4.571-1.341,6.643c-0.895,2.072-2.114,3.86-3.657,5.363c-1.544,1.505-3.352,2.702-5.424,3.596
		c-2.072,0.896-4.287,1.341-6.643,1.341H62.989c-2.358,0-4.571-0.445-6.643-1.341c-2.072-0.894-3.86-2.091-5.363-3.596
		c-1.505-1.503-2.703-3.291-3.596-5.363c-0.895-2.071-1.341-4.285-1.341-6.643v-53.874c0-2.355,0.446-4.57,1.341-6.643
		c0.893-2.072,2.091-3.858,3.596-5.363c1.502-1.502,3.291-2.7,5.363-3.596c2.072-0.893,4.285-1.341,6.643-1.341h53.752
		c2.355,0,4.571,0.448,6.643,1.341c2.072,0.896,3.879,2.094,5.424,3.596c1.543,1.505,2.762,3.291,3.657,5.363
		c0.893,2.072,1.341,4.287,1.341,6.643V647.495z"/>
	<path fill="#231F20" d="M228.143,639.816h-64.478v19.745h51.924v16.089h-51.924v19.746h64.478v16.089h-80.689v-87.759h80.689
		V639.816z"/>
	<path fill="#231F20" d="M312.122,623.727h16.211v87.759h-17.552l-54.118-64.356v64.356h-16.089v-87.759h17.552l53.996,64.356
		V623.727z"/>
	<path fill="#231F20" d="M342.104,623.727h16.089v87.759h-16.089V623.727z"/>
	<path fill="#231F20" d="M455.945,647.373h-16.211v-6.704c0-0.567-0.244-0.853-0.732-0.853h-53.873c-0.57,0-0.854,0.285-0.854,0.853
		v18.039c0,0.57,0.284,0.854,0.854,0.854h53.873c2.274,0,4.449,0.447,6.521,1.341c2.072,0.896,3.879,2.093,5.424,3.596
		c1.543,1.505,2.762,3.291,3.656,5.363c0.894,2.072,1.342,4.287,1.342,6.643v18.039c0,2.357-0.448,4.571-1.342,6.643
		c-0.895,2.072-2.113,3.86-3.656,5.363c-1.545,1.505-3.352,2.702-5.424,3.596c-2.072,0.896-4.247,1.341-6.521,1.341h-53.873
		c-2.358,0-4.571-0.445-6.643-1.341c-2.072-0.894-3.86-2.091-5.363-3.596c-1.505-1.503-2.703-3.291-3.596-5.363
		c-0.896-2.071-1.341-4.285-1.341-6.643v-6.704h16.089v6.704c0,0.569,0.284,0.854,0.854,0.854h53.873
		c0.488,0,0.732-0.284,0.732-0.854v-18.039c0-0.567-0.244-0.854-0.732-0.854h-53.873c-2.358,0-4.571-0.445-6.643-1.341
		c-2.072-0.893-3.86-2.091-5.363-3.596c-1.505-1.502-2.703-3.29-3.596-5.362c-0.896-2.072-1.341-4.285-1.341-6.644v-18.039
		c0-2.355,0.445-4.57,1.341-6.643c0.893-2.072,2.091-3.858,3.596-5.363c1.502-1.502,3.291-2.7,5.363-3.596
		c2.072-0.893,4.285-1.341,6.643-1.341h53.873c2.274,0,4.449,0.448,6.521,1.341c2.072,0.896,3.879,2.094,5.424,3.596
		c1.543,1.505,2.762,3.291,3.656,5.363c0.894,2.072,1.342,4.287,1.342,6.643V647.373z"/>
	<path fill="#231F20" d="M556.135,647.373h-16.211v-6.704c0-0.567-0.244-0.853-0.731-0.853h-53.874
		c-0.569,0-0.854,0.285-0.854,0.853v18.039c0,0.57,0.284,0.854,0.854,0.854h53.874c2.274,0,4.448,0.447,6.521,1.341
		c2.072,0.896,3.88,2.093,5.424,3.596c1.543,1.505,2.762,3.291,3.657,5.363c0.894,2.072,1.341,4.287,1.341,6.643v18.039
		c0,2.357-0.447,4.571-1.341,6.643c-0.896,2.072-2.114,3.86-3.657,5.363c-1.544,1.505-3.352,2.702-5.424,3.596
		c-2.072,0.896-4.246,1.341-6.521,1.341h-53.874c-2.357,0-4.57-0.445-6.643-1.341c-2.072-0.894-3.86-2.091-5.363-3.596
		c-1.504-1.503-2.702-3.291-3.596-5.363c-0.895-2.071-1.34-4.285-1.34-6.643v-6.704h16.088v6.704c0,0.569,0.284,0.854,0.854,0.854
		h53.874c0.487,0,0.731-0.284,0.731-0.854v-18.039c0-0.567-0.244-0.854-0.731-0.854h-53.874c-2.357,0-4.57-0.445-6.643-1.341
		c-2.072-0.893-3.86-2.091-5.363-3.596c-1.504-1.502-2.702-3.29-3.596-5.362c-0.895-2.072-1.34-4.285-1.34-6.644v-18.039
		c0-2.355,0.445-4.57,1.34-6.643c0.894-2.072,2.092-3.858,3.596-5.363c1.503-1.502,3.291-2.7,5.363-3.596
		c2.072-0.893,4.285-1.341,6.643-1.341h53.874c2.274,0,4.448,0.448,6.521,1.341c2.072,0.896,3.88,2.094,5.424,3.596
		c1.543,1.505,2.762,3.291,3.657,5.363c0.894,2.072,1.341,4.287,1.341,6.643V647.373z"/>
	<path fill="#231F20" d="M661.688,623.727L621.1,678.698v32.787h-16.09v-32.787c-3.169-4.389-6.48-8.898-9.934-13.53
		c-3.455-4.631-6.929-9.282-10.422-13.955c-3.494-4.672-6.947-9.325-10.359-13.956c-3.413-4.632-6.704-9.142-9.873-13.53h19.137
		l29.496,37.298l29.375-37.298H661.688z"/>
	<path fill="#231F20" d="M754.564,647.373h-16.211v-6.704c0-0.567-0.244-0.853-0.73-0.853h-53.875c-0.568,0-0.852,0.285-0.852,0.853
		v18.039c0,0.57,0.283,0.854,0.852,0.854h53.875c2.273,0,4.449,0.447,6.521,1.341c2.07,0.896,3.879,2.093,5.424,3.596
		c1.541,1.505,2.76,3.291,3.656,5.363c0.893,2.072,1.34,4.287,1.34,6.643v18.039c0,2.357-0.447,4.571-1.34,6.643
		c-0.896,2.072-2.115,3.86-3.656,5.363c-1.545,1.505-3.354,2.702-5.424,3.596c-2.072,0.896-4.248,1.341-6.521,1.341h-53.875
		c-2.357,0-4.57-0.445-6.643-1.341c-2.072-0.894-3.859-2.091-5.362-3.596c-1.505-1.503-2.702-3.291-3.596-5.363
		c-0.896-2.071-1.341-4.285-1.341-6.643v-6.704h16.09v6.704c0,0.569,0.283,0.854,0.852,0.854h53.875c0.486,0,0.73-0.284,0.73-0.854
		v-18.039c0-0.567-0.244-0.854-0.73-0.854h-53.875c-2.357,0-4.57-0.445-6.643-1.341c-2.072-0.893-3.859-2.091-5.362-3.596
		c-1.505-1.502-2.702-3.29-3.596-5.362c-0.896-2.072-1.341-4.285-1.341-6.644v-18.039c0-2.355,0.445-4.57,1.341-6.643
		c0.894-2.072,2.091-3.858,3.596-5.363c1.503-1.502,3.29-2.7,5.362-3.596c2.072-0.893,4.285-1.341,6.643-1.341h53.875
		c2.273,0,4.449,0.448,6.521,1.341c2.07,0.896,3.879,2.094,5.424,3.596c1.541,1.505,2.76,3.291,3.656,5.363
		c0.893,2.072,1.34,4.287,1.34,6.643V647.373z"/>
</g>
<g>
	<g enable-background="new    ">
		<path d="M107.313,744.289c-1.111-1.259-2.593-2.278-4.444-3.056c-1.853-0.777-3.963-1.167-6.333-1.167
			c-3.481,0-6.018,0.658-7.61,1.973s-2.388,3.102-2.388,5.36c0,1.186,0.212,2.158,0.639,2.916c0.425,0.76,1.083,1.417,1.972,1.973
			c0.889,0.556,2.027,1.037,3.416,1.444s3.027,0.814,4.916,1.222c2.111,0.444,4.008,0.944,5.694,1.5
			c1.685,0.556,3.12,1.25,4.305,2.083c1.185,0.833,2.092,1.843,2.722,3.027c0.629,1.186,0.944,2.667,0.944,4.444
			c0,1.814-0.353,3.389-1.056,4.722c-0.704,1.333-1.686,2.444-2.944,3.333c-1.26,0.889-2.759,1.547-4.5,1.972
			c-1.741,0.426-3.648,0.639-5.722,0.639c-6.11,0-11.388-1.906-15.832-5.722l1.944-3.166c0.703,0.741,1.546,1.444,2.528,2.111
			c0.98,0.666,2.073,1.249,3.277,1.749c1.203,0.5,2.49,0.89,3.861,1.167c1.37,0.277,2.814,0.417,4.333,0.417
			c3.147,0,5.601-0.564,7.36-1.694c1.759-1.13,2.639-2.842,2.639-5.139c0-1.222-0.25-2.25-0.75-3.083s-1.25-1.556-2.25-2.166
			c-1-0.611-2.241-1.14-3.722-1.584c-1.481-0.444-3.204-0.889-5.166-1.333c-2.074-0.48-3.888-0.98-5.444-1.5
			c-1.555-0.518-2.87-1.166-3.944-1.944c-1.075-0.777-1.88-1.712-2.417-2.805c-0.537-1.092-0.806-2.435-0.806-4.027
			c0-1.814,0.342-3.435,1.028-4.86c0.685-1.426,1.657-2.611,2.917-3.556c1.258-0.944,2.74-1.666,4.444-2.166
			c1.703-0.5,3.592-0.75,5.666-0.75c2.629,0,4.972,0.398,7.027,1.194c2.055,0.797,3.916,1.916,5.583,3.36L107.313,744.289z"/>
		<path d="M129.7,776.896c-2.111,0-4.046-0.398-5.805-1.194c-1.759-0.796-3.287-1.889-4.583-3.277
			c-1.297-1.389-2.306-2.99-3.028-4.806c-0.722-1.813-1.083-3.758-1.083-5.832c0-2.036,0.361-3.953,1.083-5.75
			c0.722-1.796,1.722-3.369,3-4.722c1.277-1.352,2.805-2.425,4.583-3.222c1.778-0.796,3.703-1.194,5.777-1.194
			c2.111,0,4.045,0.398,5.805,1.194c1.759,0.797,3.268,1.88,4.527,3.25c1.259,1.37,2.24,2.943,2.944,4.722
			c0.703,1.777,1.056,3.666,1.056,5.666c0,0.297,0,0.593,0,0.889c0,0.297-0.02,0.5-0.056,0.611h-24.775
			c0.111,1.555,0.472,2.99,1.083,4.305c0.611,1.315,1.397,2.454,2.361,3.416c0.962,0.964,2.064,1.714,3.305,2.25
			c1.24,0.537,2.564,0.806,3.972,0.806c0.925,0,1.852-0.13,2.777-0.389c0.925-0.259,1.778-0.611,2.556-1.056
			c0.777-0.444,1.48-0.99,2.111-1.639c0.629-0.647,1.111-1.361,1.444-2.139l3.277,0.889c-0.444,1.074-1.075,2.047-1.889,2.916
			c-0.815,0.871-1.759,1.631-2.833,2.278c-1.075,0.648-2.259,1.147-3.555,1.499C132.458,776.72,131.106,776.896,129.7,776.896z
			 M140.365,760.343c-0.111-1.556-0.472-2.973-1.083-4.25c-0.611-1.277-1.389-2.379-2.333-3.305s-2.037-1.647-3.277-2.167
			c-1.241-0.518-2.565-0.777-3.972-0.777c-1.408,0-2.741,0.26-4,0.777c-1.26,0.52-2.361,1.241-3.305,2.167s-1.704,2.037-2.278,3.333
			c-0.575,1.296-0.917,2.703-1.028,4.222H140.365z"/>
		<path d="M164.251,750.732c-2.556,0.074-4.777,0.777-6.666,2.111c-1.889,1.333-3.222,3.166-4,5.499v17.998h-3.778v-28.941h3.555
			v6.943c1.074-2.222,2.518-3.962,4.333-5.222c1.814-1.258,3.758-1.889,5.833-1.889c0.296,0,0.536,0.02,0.722,0.056V750.732z"/>
		<path d="M177.972,776.341l-11.776-28.941h3.888l9.943,25.441l9.999-25.441h3.667l-11.777,28.941H177.972z"/>
		<path d="M198.913,741.345v-5.556h3.778v5.556H198.913z M198.913,776.341v-28.941h3.778v28.941H198.913z"/>
		<path d="M209.023,761.787c0-2.036,0.352-3.963,1.055-5.777c0.703-1.814,1.694-3.397,2.972-4.75
			c1.277-1.351,2.805-2.416,4.583-3.193c1.777-0.778,3.74-1.167,5.888-1.167c2.74,0,5.129,0.621,7.166,1.861
			c2.036,1.241,3.573,2.916,4.61,5.027l-3.666,1.166c-0.815-1.48-1.954-2.639-3.417-3.472c-1.463-0.833-3.083-1.25-4.861-1.25
			c-1.481,0-2.86,0.297-4.138,0.889c-1.278,0.593-2.389,1.398-3.333,2.417s-1.686,2.231-2.222,3.638
			c-0.537,1.408-0.805,2.944-0.805,4.611c0,1.63,0.278,3.166,0.833,4.61c0.556,1.444,1.314,2.694,2.278,3.75
			c0.962,1.055,2.083,1.889,3.36,2.499c1.278,0.611,2.639,0.917,4.083,0.917c0.925,0,1.842-0.13,2.75-0.389
			c0.907-0.259,1.75-0.62,2.527-1.084c0.778-0.462,1.444-0.99,2-1.583c0.555-0.592,0.944-1.222,1.167-1.889l3.722,1.111
			c-0.408,1.037-1,1.991-1.778,2.86c-0.777,0.871-1.694,1.631-2.75,2.278c-1.056,0.648-2.222,1.147-3.5,1.499
			c-1.278,0.352-2.602,0.528-3.972,0.528c-2.111,0-4.055-0.398-5.833-1.194c-1.777-0.796-3.315-1.889-4.61-3.277
			c-1.297-1.389-2.306-2.99-3.028-4.806C209.384,765.806,209.023,763.861,209.023,761.787z"/>
		<path d="M253.741,776.896c-2.111,0-4.046-0.398-5.805-1.194c-1.759-0.796-3.287-1.889-4.583-3.277
			c-1.297-1.389-2.306-2.99-3.028-4.806c-0.722-1.813-1.083-3.758-1.083-5.832c0-2.036,0.361-3.953,1.083-5.75
			c0.722-1.796,1.722-3.369,3-4.722c1.277-1.352,2.805-2.425,4.583-3.222c1.778-0.796,3.703-1.194,5.777-1.194
			c2.111,0,4.045,0.398,5.805,1.194c1.759,0.797,3.268,1.88,4.527,3.25c1.259,1.37,2.24,2.943,2.944,4.722
			c0.703,1.777,1.056,3.666,1.056,5.666c0,0.297,0,0.593,0,0.889c0,0.297-0.02,0.5-0.056,0.611h-24.775
			c0.111,1.555,0.472,2.99,1.083,4.305c0.611,1.315,1.397,2.454,2.361,3.416c0.962,0.964,2.064,1.714,3.305,2.25
			c1.24,0.537,2.564,0.806,3.972,0.806c0.925,0,1.852-0.13,2.777-0.389c0.925-0.259,1.778-0.611,2.556-1.056
			c0.777-0.444,1.48-0.99,2.111-1.639c0.629-0.647,1.111-1.361,1.444-2.139l3.277,0.889c-0.444,1.074-1.075,2.047-1.889,2.916
			c-0.815,0.871-1.759,1.631-2.833,2.278c-1.075,0.648-2.259,1.147-3.555,1.499C256.499,776.72,255.147,776.896,253.741,776.896z
			 M264.406,760.343c-0.111-1.556-0.472-2.973-1.083-4.25c-0.611-1.277-1.389-2.379-2.333-3.305s-2.037-1.647-3.277-2.167
			c-1.241-0.518-2.565-0.777-3.972-0.777c-1.408,0-2.741,0.26-4,0.777c-1.26,0.52-2.361,1.241-3.305,2.167s-1.704,2.037-2.278,3.333
			c-0.575,1.296-0.917,2.703-1.028,4.222H264.406z"/>
		<path d="M283.459,776.896c-2.259,0-4.463-0.371-6.61-1.111c-2.148-0.74-4-1.813-5.555-3.222l1.722-2.556
			c1.629,1.334,3.286,2.333,4.972,3c1.685,0.667,3.49,1,5.416,1c2.333,0,4.194-0.473,5.583-1.417
			c1.389-0.944,2.083-2.286,2.083-4.027c0-0.813-0.186-1.49-0.556-2.027c-0.371-0.536-0.917-1.009-1.639-1.416
			s-1.63-0.769-2.722-1.084c-1.093-0.313-2.361-0.639-3.805-0.972c-1.667-0.407-3.111-0.814-4.333-1.222s-2.231-0.87-3.027-1.39
			c-0.797-0.518-1.389-1.156-1.778-1.916c-0.389-0.759-0.583-1.713-0.583-2.86c0-1.444,0.286-2.723,0.861-3.833
			c0.574-1.111,1.352-2.028,2.333-2.75c0.981-0.723,2.129-1.269,3.444-1.639c1.314-0.37,2.712-0.556,4.194-0.556
			c2.222,0,4.24,0.361,6.055,1.083c1.814,0.723,3.278,1.677,4.389,2.861l-1.833,2.222c-1.075-1.111-2.38-1.944-3.917-2.5
			c-1.537-0.555-3.139-0.833-4.805-0.833c-1,0-1.926,0.103-2.777,0.306c-0.852,0.204-1.602,0.527-2.25,0.972
			c-0.648,0.444-1.158,1.01-1.528,1.694c-0.371,0.686-0.556,1.491-0.556,2.417c0,0.777,0.129,1.407,0.389,1.889
			c0.258,0.481,0.685,0.898,1.277,1.25c0.592,0.352,1.342,0.666,2.25,0.944c0.907,0.277,2.008,0.564,3.305,0.86
			c1.852,0.444,3.48,0.889,4.888,1.334c1.407,0.444,2.583,0.963,3.527,1.555c0.944,0.593,1.657,1.315,2.139,2.167
			c0.481,0.852,0.722,1.889,0.722,3.11c0,2.666-1.019,4.777-3.055,6.333C289.643,776.118,286.903,776.896,283.459,776.896z"/>
		<path d="M322.343,776.896c-1.371,0-2.639-0.231-3.805-0.694s-2.186-1.102-3.055-1.917c-0.871-0.813-1.547-1.768-2.028-2.86
			c-0.481-1.092-0.722-2.269-0.722-3.527s0.296-2.425,0.889-3.5c0.592-1.073,1.425-2,2.5-2.777c1.074-0.777,2.351-1.379,3.833-1.806
			c1.48-0.425,3.111-0.639,4.888-0.639c1.481,0,2.98,0.131,4.5,0.389c1.518,0.26,2.87,0.631,4.055,1.111v-2.61
			c0-2.556-0.722-4.583-2.167-6.083s-3.444-2.25-5.999-2.25c-1.482,0-3,0.297-4.555,0.889c-1.556,0.593-3.13,1.444-4.722,2.556
			l-1.333-2.5c3.74-2.518,7.369-3.777,10.888-3.777c3.629,0,6.48,1.02,8.555,3.056c2.074,2.037,3.111,4.852,3.111,8.443v13.054
			c0,1.037,0.463,1.556,1.389,1.556v3.333c-0.63,0.111-1.111,0.167-1.444,0.167c-0.963,0-1.713-0.241-2.25-0.723
			c-0.537-0.48-0.825-1.147-0.861-2l-0.111-2.277c-1.333,1.741-3.009,3.074-5.027,4
			C326.852,776.433,324.676,776.896,322.343,776.896z M323.232,774.008c1.962,0,3.768-0.37,5.416-1.111
			c1.647-0.74,2.897-1.722,3.75-2.944c0.333-0.333,0.583-0.694,0.75-1.083s0.25-0.75,0.25-1.083v-4.722
			c-1.259-0.48-2.565-0.852-3.916-1.111c-1.353-0.259-2.731-0.389-4.139-0.389c-2.667,0-4.833,0.556-6.499,1.667
			c-1.667,1.11-2.5,2.574-2.5,4.388c0,0.89,0.175,1.723,0.528,2.5c0.352,0.777,0.833,1.454,1.444,2.027
			c0.611,0.575,1.342,1.028,2.194,1.361C321.361,773.841,322.269,774.008,323.232,774.008z"/>
		<path d="M369.672,776.341h-3.777v-16.165c0-3.444-0.51-5.943-1.528-7.499c-1.019-1.556-2.583-2.333-4.694-2.333
			c-1.111,0-2.222,0.204-3.333,0.611s-2.139,0.981-3.083,1.722c-0.944,0.741-1.787,1.62-2.527,2.639
			c-0.741,1.019-1.278,2.12-1.611,3.305v17.721h-3.778v-28.941h3.444v6.555c1.185-2.11,2.879-3.813,5.083-5.11
			c2.203-1.296,4.601-1.944,7.194-1.944c1.592,0,2.944,0.297,4.055,0.889c1.111,0.593,2,1.426,2.667,2.5s1.147,2.389,1.444,3.944
			c0.296,1.555,0.444,3.277,0.444,5.166V776.341z"/>
		<path d="M389.613,776.896c-2,0-3.852-0.417-5.555-1.25c-1.704-0.833-3.167-1.935-4.389-3.306
			c-1.222-1.369-2.176-2.952-2.861-4.749c-0.686-1.796-1.027-3.675-1.027-5.639c0-2.036,0.333-3.972,1-5.805
			c0.667-1.833,1.583-3.435,2.75-4.805s2.555-2.453,4.166-3.25c1.611-0.796,3.379-1.194,5.305-1.194c2.444,0,4.61,0.639,6.499,1.917
			c1.889,1.277,3.37,2.824,4.444,4.638v-17.665h3.777v35.663c0,1.037,0.445,1.556,1.334,1.556v3.333
			c-0.556,0.111-1,0.167-1.334,0.167c-0.889,0-1.666-0.287-2.332-0.861c-0.667-0.574-1-1.269-1-2.083v-2.833
			c-1.148,1.889-2.704,3.389-4.666,4.499C393.761,776.341,391.724,776.896,389.613,776.896z M390.447,773.563
			c0.925,0,1.917-0.185,2.972-0.556c1.056-0.37,2.046-0.879,2.972-1.527c0.925-0.647,1.712-1.407,2.361-2.277
			c0.647-0.87,1.046-1.806,1.194-2.806v-8.943c-0.371-1-0.908-1.935-1.611-2.806c-0.704-0.869-1.51-1.639-2.417-2.305
			c-0.908-0.667-1.88-1.186-2.917-1.556c-1.037-0.37-2.055-0.556-3.055-0.556c-1.556,0-2.963,0.333-4.222,1
			c-1.26,0.667-2.343,1.547-3.25,2.639c-0.908,1.093-1.602,2.343-2.083,3.749c-0.481,1.408-0.722,2.853-0.722,4.333
			c0,1.556,0.278,3.037,0.833,4.444c0.555,1.408,1.314,2.639,2.277,3.694c0.962,1.055,2.102,1.897,3.417,2.527
			C387.511,773.249,388.928,773.563,390.447,773.563z"/>
		<path d="M453.662,740.345h-14.055v35.996h-3.889v-35.996h-14.054V736.9h31.997V740.345z"/>
		<path d="M464.938,776.896c-2.111,0-4.047-0.398-5.805-1.194c-1.76-0.796-3.287-1.889-4.583-3.277
			c-1.297-1.389-2.306-2.99-3.028-4.806c-0.722-1.813-1.082-3.758-1.082-5.832c0-2.036,0.36-3.953,1.082-5.75
			c0.723-1.796,1.723-3.369,3-4.722c1.277-1.352,2.806-2.425,4.583-3.222c1.778-0.796,3.703-1.194,5.777-1.194
			c2.11,0,4.046,0.398,5.805,1.194c1.759,0.797,3.269,1.88,4.527,3.25s2.24,2.943,2.944,4.722c0.703,1.777,1.056,3.666,1.056,5.666
			c0,0.297,0,0.593,0,0.889c0,0.297-0.02,0.5-0.056,0.611h-24.775c0.111,1.555,0.473,2.99,1.084,4.305
			c0.61,1.315,1.396,2.454,2.36,3.416c0.962,0.964,2.063,1.714,3.306,2.25c1.24,0.537,2.563,0.806,3.971,0.806
			c0.926,0,1.852-0.13,2.777-0.389s1.778-0.611,2.557-1.056c0.777-0.444,1.48-0.99,2.11-1.639c0.629-0.647,1.11-1.361,1.444-2.139
			l3.277,0.889c-0.444,1.074-1.074,2.047-1.889,2.916c-0.814,0.871-1.76,1.631-2.833,2.278c-1.075,0.648-2.259,1.147-3.556,1.499
			S466.344,776.896,464.938,776.896z M475.604,760.343c-0.111-1.556-0.473-2.973-1.084-4.25s-1.389-2.379-2.333-3.305
			s-2.037-1.647-3.277-2.167c-1.241-0.518-2.565-0.777-3.972-0.777c-1.408,0-2.741,0.26-4,0.777c-1.26,0.52-2.36,1.241-3.305,2.167
			s-1.704,2.037-2.277,3.333c-0.575,1.296-0.917,2.703-1.028,4.222H475.604z"/>
		<path d="M483.046,761.787c0-2.036,0.352-3.963,1.056-5.777c0.703-1.814,1.693-3.397,2.972-4.75
			c1.277-1.351,2.806-2.416,4.583-3.193c1.777-0.778,3.74-1.167,5.889-1.167c2.74,0,5.129,0.621,7.166,1.861
			c2.035,1.241,3.572,2.916,4.609,5.027l-3.666,1.166c-0.814-1.48-1.953-2.639-3.416-3.472s-3.083-1.25-4.861-1.25
			c-1.48,0-2.859,0.297-4.138,0.889c-1.278,0.593-2.389,1.398-3.333,2.417s-1.686,2.231-2.223,3.638
			c-0.537,1.408-0.805,2.944-0.805,4.611c0,1.63,0.277,3.166,0.833,4.61s1.313,2.694,2.278,3.75
			c0.962,1.055,2.082,1.889,3.359,2.499c1.278,0.611,2.639,0.917,4.084,0.917c0.925,0,1.842-0.13,2.75-0.389
			c0.906-0.259,1.749-0.62,2.527-1.084c0.777-0.462,1.443-0.99,2-1.583c0.555-0.592,0.943-1.222,1.166-1.889l3.722,1.111
			c-0.408,1.037-1,1.991-1.778,2.86c-0.777,0.871-1.693,1.631-2.749,2.278c-1.056,0.648-2.222,1.147-3.499,1.499
			c-1.278,0.352-2.603,0.528-3.973,0.528c-2.111,0-4.055-0.398-5.832-1.194s-3.315-1.889-4.611-3.277
			c-1.297-1.389-2.305-2.99-3.027-4.806C483.406,765.806,483.046,763.861,483.046,761.787z"/>
		<path d="M539.873,776.341h-3.777v-16.165c0-3.296-0.564-5.758-1.694-7.388s-2.787-2.444-4.972-2.444
			c-1.074,0-2.139,0.213-3.194,0.639s-2.046,1.01-2.972,1.75c-0.926,0.741-1.731,1.61-2.416,2.61c-0.686,1-1.195,2.093-1.527,3.277
			v17.721h-3.778v-40.552h3.778v18.165c1.146-2.185,2.739-3.906,4.776-5.166c2.036-1.259,4.24-1.889,6.61-1.889
			c1.666,0,3.074,0.306,4.223,0.917c1.146,0.61,2.092,1.463,2.832,2.555c0.74,1.093,1.277,2.408,1.611,3.944
			c0.334,1.537,0.5,3.231,0.5,5.083V776.341z"/>
		<path d="M572.258,776.341h-3.777v-16.165c0-3.444-0.51-5.943-1.527-7.499c-1.02-1.556-2.583-2.333-4.693-2.333
			c-1.111,0-2.223,0.204-3.334,0.611c-1.11,0.407-2.139,0.981-3.082,1.722c-0.945,0.741-1.787,1.62-2.527,2.639
			c-0.742,1.019-1.278,2.12-1.611,3.305v17.721h-3.777v-28.941h3.443v6.555c1.186-2.11,2.879-3.813,5.083-5.11
			c2.203-1.296,4.601-1.944,7.194-1.944c1.592,0,2.943,0.297,4.055,0.889c1.111,0.593,2,1.426,2.666,2.5
			c0.667,1.074,1.148,2.389,1.445,3.944c0.295,1.555,0.443,3.277,0.443,5.166V776.341z"/>
		<path d="M592.645,776.896c-2.111,0-4.037-0.398-5.777-1.194c-1.741-0.796-3.25-1.879-4.527-3.25
			c-1.277-1.369-2.27-2.962-2.973-4.777c-0.703-1.813-1.055-3.722-1.055-5.722c0-2.036,0.361-3.962,1.083-5.776s1.722-3.407,3-4.777
			c1.277-1.37,2.786-2.463,4.527-3.278c1.74-0.813,3.647-1.222,5.722-1.222c2.073,0,3.99,0.408,5.749,1.222
			c1.759,0.815,3.277,1.908,4.556,3.278c1.277,1.37,2.277,2.963,2.999,4.777s1.083,3.74,1.083,5.776c0,2-0.352,3.908-1.055,5.722
			c-0.704,1.815-1.695,3.408-2.973,4.777c-1.277,1.371-2.797,2.454-4.555,3.25C596.689,776.498,594.756,776.896,592.645,776.896z
			 M582.146,762.009c0,1.63,0.278,3.139,0.833,4.527c0.556,1.389,1.306,2.611,2.25,3.666c0.944,1.056,2.055,1.881,3.333,2.473
			c1.277,0.593,2.639,0.889,4.083,0.889c1.443,0,2.805-0.306,4.082-0.917c1.278-0.61,2.398-1.444,3.361-2.499
			c0.963-1.056,1.723-2.287,2.277-3.694c0.556-1.407,0.834-2.925,0.834-4.556c0-1.592-0.278-3.101-0.834-4.527
			c-0.555-1.425-1.314-2.666-2.277-3.722c-0.963-1.055-2.083-1.889-3.361-2.499c-1.277-0.611-2.639-0.917-4.082-0.917
			c-1.444,0-2.797,0.306-4.055,0.917c-1.26,0.61-2.371,1.453-3.334,2.527s-1.722,2.324-2.277,3.749
			C582.424,758.853,582.146,760.38,582.146,762.009z"/>
		<path d="M613.53,735.789h3.777v33.997c0,1.074,0.296,1.916,0.889,2.527c0.592,0.611,1.425,0.917,2.5,0.917
			c0.407,0,0.889-0.056,1.444-0.167c0.555-0.111,1.073-0.259,1.555-0.444l0.667,3.055c-0.704,0.297-1.565,0.538-2.583,0.723
			c-1.02,0.185-1.898,0.277-2.639,0.277c-1.741,0-3.111-0.49-4.111-1.472c-0.999-0.98-1.499-2.361-1.499-4.139V735.789z"/>
		<path d="M640.805,776.896c-2.111,0-4.037-0.398-5.777-1.194c-1.741-0.796-3.25-1.879-4.527-3.25
			c-1.277-1.369-2.27-2.962-2.973-4.777c-0.703-1.813-1.055-3.722-1.055-5.722c0-2.036,0.361-3.962,1.083-5.776s1.722-3.407,3-4.777
			c1.277-1.37,2.786-2.463,4.527-3.278c1.74-0.813,3.647-1.222,5.722-1.222c2.073,0,3.99,0.408,5.749,1.222
			c1.759,0.815,3.277,1.908,4.556,3.278c1.277,1.37,2.277,2.963,2.999,4.777s1.083,3.74,1.083,5.776c0,2-0.352,3.908-1.055,5.722
			c-0.704,1.815-1.695,3.408-2.973,4.777c-1.277,1.371-2.797,2.454-4.555,3.25C644.85,776.498,642.916,776.896,640.805,776.896z
			 M630.306,762.009c0,1.63,0.278,3.139,0.833,4.527c0.556,1.389,1.306,2.611,2.25,3.666c0.944,1.056,2.055,1.881,3.333,2.473
			c1.277,0.593,2.639,0.889,4.083,0.889c1.443,0,2.805-0.306,4.082-0.917c1.278-0.61,2.398-1.444,3.361-2.499
			c0.963-1.056,1.723-2.287,2.277-3.694c0.556-1.407,0.834-2.925,0.834-4.556c0-1.592-0.278-3.101-0.834-4.527
			c-0.555-1.425-1.314-2.666-2.277-3.722c-0.963-1.055-2.083-1.889-3.361-2.499c-1.277-0.611-2.639-0.917-4.082-0.917
			c-1.444,0-2.797,0.306-4.055,0.917c-1.26,0.61-2.371,1.453-3.334,2.527s-1.722,2.324-2.277,3.749
			C630.584,758.853,630.306,760.38,630.306,762.009z"/>
		<path d="M673.133,776.729c-1.999,0-3.824-0.416-5.471-1.25c-1.648-0.833-3.074-1.935-4.277-3.305
			c-1.204-1.37-2.139-2.944-2.806-4.722c-0.667-1.778-0.999-3.611-0.999-5.5c0-1.999,0.323-3.916,0.972-5.749
			c0.647-1.833,1.563-3.435,2.749-4.805s2.602-2.463,4.25-3.278c1.647-0.813,3.472-1.222,5.472-1.222
			c2.48,0,4.629,0.621,6.444,1.861c1.813,1.241,3.369,2.805,4.666,4.693v-6.055h3.389v29.053c0,2-0.381,3.768-1.139,5.305
			c-0.76,1.536-1.778,2.823-3.056,3.86c-1.278,1.037-2.778,1.814-4.5,2.334c-1.722,0.518-3.546,0.777-5.472,0.777
			c-3.332,0-6.018-0.593-8.055-1.777c-2.037-1.186-3.686-2.778-4.943-4.777l2.333-1.833c1.147,1.851,2.666,3.212,4.555,4.082
			s3.925,1.306,6.11,1.306c1.407,0,2.74-0.194,4-0.583c1.258-0.389,2.361-0.964,3.305-1.722c0.945-0.76,1.695-1.723,2.25-2.889
			c0.556-1.167,0.834-2.528,0.834-4.083v-5.722c-1.111,1.853-2.631,3.314-4.556,4.389
			C677.262,776.193,675.244,776.729,673.133,776.729z M674.189,773.563c1.11,0,2.203-0.203,3.277-0.611
			c1.073-0.407,2.045-0.953,2.916-1.639c0.869-0.685,1.602-1.453,2.194-2.306c0.592-0.851,0.98-1.722,1.167-2.61v-8.943
			c-0.408-1.036-0.964-2-1.667-2.889c-0.704-0.889-1.5-1.647-2.389-2.277s-1.843-1.13-2.86-1.5c-1.02-0.37-2.047-0.556-3.084-0.556
			c-1.629,0-3.082,0.343-4.36,1.027c-1.277,0.687-2.36,1.584-3.249,2.694c-0.889,1.111-1.565,2.37-2.027,3.777
			c-0.465,1.408-0.695,2.833-0.695,4.277c0,1.556,0.277,3.037,0.834,4.444c0.555,1.407,1.323,2.639,2.305,3.694
			c0.98,1.055,2.119,1.889,3.416,2.499C671.264,773.258,672.67,773.563,674.189,773.563z"/>
		<path d="M697.52,785.229c0.297,0.037,0.584,0.064,0.861,0.084c0.277,0.018,0.546,0.027,0.805,0.027
			c0.668,0,1.195-0.093,1.584-0.277c0.389-0.187,0.768-0.593,1.139-1.223c0.369-0.63,0.786-1.537,1.25-2.722
			c0.463-1.186,1.119-2.777,1.972-4.777l-12.61-28.941h3.889l10.722,25.441l9.943-25.441h3.61l-14.998,37.329
			c-0.408,1.074-1.083,2.009-2.027,2.806c-0.944,0.796-2.232,1.194-3.861,1.194c-0.37,0-0.722-0.01-1.055-0.028
			c-0.334-0.019-0.742-0.064-1.223-0.139V785.229z"/>
	</g>
</g>
<linearGradient id="SVGID_1_" gradientUnits="userSpaceOnUse" x1="382.7178" y1="807.9681" x2="380.8091" y2="195.3253" gradientTransform="matrix(1 0 0 -1 0 802)">
	<stop  offset="0" style="stop-color:#F8C90F"/>
	<stop  offset="0.0664" style="stop-color:#F8C212"/>
	<stop  offset="0.1638" style="stop-color:#F6AE19"/>
	<stop  offset="0.2802" style="stop-color:#F48E25"/>
	<stop  offset="0.4113" style="stop-color:#F16136"/>
	<stop  offset="0.5469" style="stop-color:#ED2B4B"/>
</linearGradient>
<path fill="url(#SVGID_1_)" d="M381.76,37.474c-145.817,0-264.452,118.634-264.452,264.452c0,137.214,105.026,250.34,238.94,263.216
	c0-17.271,0-150.401,0-168.92l-61.237-59.514v-81.76c10.541-3.052,18.28-12.772,18.28-24.285c0-33.433-50.592-33.433-50.592,0
	c0,11.512,7.738,21.233,18.282,24.285v41.36l-25.94-19.62V206.04c27.731-8.346,21.708-49.52-7.273-49.52
	c-29.22,0-35.033,41.791-6.759,49.652v77.496l39.972,30.231v28.742l12.862,12.5h-37.725l-40.147-38.966
	c11.073-16.765-1.022-39.196-21.111-39.196c-40.543,0-27.595,65.516,10.383,48.338l45.185,43.857h57.851l33.939,32.981
	c0,17.321,0,131.909,0,147.061c-119.024-18.94-210.876-122.376-210.876-247.29c0-138.083,112.336-250.419,250.419-250.419
	c138.08,0,250.416,112.335,250.416,250.419c0,128.175-96.795,234.187-221.227,248.708v-15.691
	c115.524-14.391,205.637-113.205,205.637-233.017c0-129.484-105.345-234.828-234.827-234.828S146.933,172.442,146.933,301.926
	c0,111.059,77.499,204.355,181.253,228.651v-12.822c-96.817-24.043-168.791-111.683-168.791-215.83
	c0-122.613,99.752-222.368,222.365-222.368c122.611,0,222.368,99.755,222.368,222.368c0,112.832-84.436,206.129-193.179,220.449
	c0-49.735,0-90.557,0-114.48l3.744-2.827h41.8l65.68-34.958c15.826,16.076,43.317,4.841,43.317-17.729
	c0-37.169-57.902-30.868-50,5.394l-62.498,33.26h-19.714l113.924-86.008V223.94c27.944-8.087,22.153-49.582-7.016-49.582
	c-29.182,0-34.916,41.506-7.012,49.582v74.019l-86.413,65.238v-48.388l44.394-31.915v-34.965
	c27.937-8.084,22.141-49.583-7.018-49.583c-29.191,0-34.925,41.508-7.014,49.583V275.7l-44.394,31.912v66.177l-35.812,27.037
	c0,18.716,0,146.547,0,165.106c138.853-7.907,249.292-123.331,249.292-264.008C646.21,156.108,527.58,37.474,381.76,37.474z
	 M241.529,172.362c4.659-2.846,10.4-2.359,14.319,1.443c5.756,5.594,3.96,17.849-6.738,19.142
	C235.084,192.947,232.982,177.954,241.529,172.362z M186.815,310.317c-6.746-6.96-2.502-19.311,8.045-19.311
	c6.436,0,11.266,4.817,11.266,11.265C206.126,312.783,193.83,317.072,186.815,310.317z M276.727,230.663
	c0-14.89,22.533-14.89,22.533,0C299.26,245.551,276.727,245.551,276.727,230.663z M540.187,341.114
	c6.431,0,11.273,4.82,11.273,11.267c0,6.442-4.832,11.267-11.273,11.267c-6.424,0-11.262-4.821-11.262-11.267
	C528.926,345.938,533.751,341.114,540.187,341.114z M540.187,188.488c15.055,0,15.055,22.334,0,22.334
	C525.144,210.822,525.144,188.488,540.187,188.488z M484.138,212.381c14.89,0,14.89,22.53,0,22.53
	C469.251,234.911,469.251,212.381,484.138,212.381z"/>
<linearGradient id="SVGID_2_" gradientUnits="userSpaceOnUse" x1="389.6603" y1="895.1095" x2="374.7982" y2="151.971" gradientTransform="matrix(1 0 0 -1 0 802)">
	<stop  offset="0.3746" style="stop-color:#52B711"/>
	<stop  offset="0.421" style="stop-color:#4FAD1D"/>
	<stop  offset="0.5053" style="stop-color:#47933D"/>
	<stop  offset="0.6169" style="stop-color:#3B6971"/>
	<stop  offset="0.7007" style="stop-color:#30469C"/>
</linearGradient>
<path fill="url(#SVGID_2_)" d="M381.76,11.272c-160.269,0-290.653,130.386-290.653,290.654
	c0,176.758,157.629,313.837,333.874,287.436c139.845-20.937,247.432-141.852,247.432-287.436
	C672.414,141.657,542.031,11.272,381.76,11.272z M383.351,579.857c0-31.749,0-215.377,0-242.355l35.359-33.752V197.504
	l34.232-37.359c37.965,16.064,49.877-48.608,9.827-48.608c-20.392,0-32.416,23.035-20.739,39.745l-37.347,40.763v105.702
	l-35.365,33.749v9.879l-24.648-23.421v-54.518l0.429,0.525l45.265-37.1V147.29c25.637-10.482,18.048-48.708-9.542-48.708
	c-13.945,0-25.293,11.347-25.293,25.296c0,12.413,8.994,22.746,20.807,24.874v71.469l-31.666,25.951v-51.736
	c9.558-3.62,16.381-12.839,16.381-23.646c0-33.43-50.597-33.43-50.597,0c0,12.199,8.676,22.404,20.186,24.778v128.407l38.677,36.756
	c0,23.433,0,196.356,0,218.86c-147.426-6.529-265.515-128.497-265.515-277.664c0-153.265,124.69-277.954,277.956-277.954
	c153.263,0,277.957,124.69,277.957,277.954C659.718,454.595,535.934,579.018,383.351,579.857z M462.769,125.568
	c18.501,0,11.942,29.604-4.914,21.357l-4.711-4.314C448.527,134.935,454.217,125.568,462.769,125.568z M339.942,181.231h-8.377
	c-10.937-4.403-8.957-21.61,4.191-21.605C348.927,159.621,350.857,176.834,339.942,181.231z M380.823,135.143
	c-6.209,0-11.264-5.054-11.264-11.264c0-6.213,5.055-11.267,11.264-11.267c6.215,0,11.266,5.054,11.266,11.267
	C392.089,130.089,387.037,135.143,380.823,135.143z"/>
</svg>
